<svg id="Capa_1" enable-background="new 0 0 512 512" height="512" viewBox="0 0 512 512" width="512" xmlns="http://www.w3.org/2000/svg"><g><g fill="none"><path d="m255.973 171.387 27.799-27.484-27.795-27.799-27.796 27.804z"/><path d="m206.883 67.004c-3.581-3.582-8.342-5.554-13.408-5.554-.006 0-.013 0-.019 0-5.072.005-9.837 1.987-13.417 5.582l-1.262 1.266c-3.583 3.597-5.546 8.376-5.526 13.455.02 5.078 2.019 9.841 5.63 13.412l28.003 27.687 27.918-27.925z"/><path d="m282.522 239.749-26.549-26.248-26.542 26.243 26.546 26.539z"/><path d="m333.066 95.165c3.611-3.57 5.61-8.334 5.63-13.412.02-5.079-1.943-9.857-5.527-13.456l-1.261-1.267c-3.579-3.592-8.344-5.575-13.416-5.58-.006 0-.014 0-.02 0-5.065 0-9.827 1.972-13.409 5.555l-27.913 27.92 27.918 27.921z"/><path d="m117.207 176.118c-4.031 0-7.819 1.57-10.669 4.422-2.847 2.85-4.414 6.637-4.412 10.666.002 4.028 1.572 7.815 4.422 10.662 5.878 5.872 15.44 5.871 21.317 0l10.668-10.659-10.658-10.669c-2.849-2.851-6.638-4.422-10.668-4.422z"/><path d="m207.007 165.087-26.12 26.127 27.364 27.356 26.425-26.126z"/><path d="m394.793 176.118c-4.03 0-7.819 1.57-10.668 4.422l-10.658 10.668 10.669 10.659c5.877 5.872 15.44 5.872 21.317 0 2.85-2.847 4.42-6.634 4.422-10.662s-1.566-7.816-4.412-10.665c-2.851-2.851-6.639-4.422-10.67-4.422z"/><path d="m178.881 289.723c-3.616 3.575-5.616 8.345-5.631 13.431-.015 5.084 1.958 9.866 5.553 13.462 3.582 3.583 8.344 5.556 13.409 5.556h.001c5.065 0 9.827-1.973 13.408-5.554l29.174-29.162-26.661-26.656z"/><path d="m306.324 316.616c3.584 3.584 8.346 5.556 13.411 5.556s9.828-1.974 13.408-5.556c3.596-3.597 5.568-8.378 5.553-13.463s-2.014-9.855-5.63-13.43l-29.248-28.917-26.662 26.651z"/><path d="m304.947 165.081-27.676 27.363 26.431 26.133 27.375-27.363z"/></g><g><path d="m241.026 394.715h14.974l7.487-48.354-7.487-58.809h-14.974z" fill="#db3862"/><path d="m241.026 0v95.538h14.974l14.974-57.426-14.974-38.112z" fill="#db3862"/><g fill="#b7274c"><path d="m256 0h14.974v95.538h-14.974z"/><path d="m256 287.552h14.974v107.163h-14.974z"/></g></g><g><path d="m214.771 383.747v51.634l41.229 23.992 24.91-37.813-24.91-37.813z" fill="#feee99"/><path d="m256 383.747v75.626l.049.028 41.184-24.02v-51.634z" fill="#fcd870"/></g><g><g fill="none"><path d="m234.802 94.926-27.919-27.922c-3.581-3.582-8.342-5.554-13.408-5.554-.006 0-.013 0-.019 0-5.072.005-9.837 1.987-13.417 5.582l-1.262 1.266c-3.583 3.597-5.546 8.376-5.526 13.455.02 5.078 2.019 9.841 5.63 13.412l28.003 27.687z"/><path d="m178.881 289.723c-3.616 3.575-5.616 8.345-5.631 13.431-.015 5.084 1.958 9.866 5.553 13.462 3.582 3.583 8.344 5.556 13.409 5.556h.001c5.065 0 9.827-1.973 13.408-5.554l29.174-29.162-26.661-26.656z"/><path d="m117.207 176.118c-4.031 0-7.819 1.57-10.669 4.422-2.847 2.85-4.414 6.637-4.412 10.666.002 4.028 1.572 7.815 4.422 10.662 5.878 5.872 15.44 5.871 21.317 0l10.668-10.659-10.658-10.669c-2.849-2.851-6.638-4.422-10.668-4.422z"/><path d="m234.676 192.444-27.669-27.357-26.12 26.127 27.364 27.356z"/><path d="m277.271 192.444 26.431 26.133 27.375-27.363-26.13-26.133z"/><path d="m394.793 176.118c-4.03 0-7.819 1.57-10.668 4.422l-10.658 10.668 10.669 10.659c5.877 5.872 15.44 5.872 21.317 0 2.85-2.847 4.42-6.634 4.422-10.662s-1.566-7.816-4.412-10.665c-2.851-2.851-6.639-4.422-10.67-4.422z"/><path d="m333.066 95.165c3.611-3.57 5.61-8.334 5.63-13.412.02-5.079-1.943-9.857-5.527-13.456l-1.261-1.267c-3.579-3.592-8.344-5.575-13.416-5.58-.006 0-.014 0-.02 0-5.065 0-9.827 1.972-13.409 5.555l-27.913 27.92 27.918 27.921z"/><path d="m277.157 287.457 29.167 29.159c3.584 3.584 8.346 5.556 13.411 5.556s9.828-1.974 13.408-5.556c3.596-3.597 5.568-8.378 5.553-13.463s-2.014-9.855-5.63-13.43l-29.248-28.917z"/></g><path d="m229.431 239.744 26.569-26.243 14.974-21.672-14.974-20.442-27.82-27.479 27.82-27.804 14.974-20.567-14.974-21.79-27.94-27.919c-9.239-9.239-21.519-14.326-34.584-14.326-.017 0-.034 0-.05 0-13.083.013-25.374 5.125-34.606 14.394l-1.262 1.267c-9.243 9.281-14.306 21.606-14.255 34.705.051 13.098 5.208 25.384 14.522 34.592l27.885 27.57-25.997 26.004-10.653-10.662c-8.506-8.514-19.819-13.203-31.854-13.203s-23.348 4.69-31.854 13.203c-8.501 8.509-13.18 19.818-13.174 31.846.005 12.028 4.695 23.333 13.203 31.833 8.774 8.767 20.299 13.15 31.825 13.15s23.051-4.383 31.825-13.15l10.676-10.666 27.247 27.24-29.13 28.801c-9.327 9.222-14.485 21.524-14.522 34.64-.038 13.116 5.048 25.447 14.321 34.723 9.238 9.24 21.521 14.329 34.587 14.33h.003c13.064 0 25.348-5.088 34.583-14.324l29.204-29.166 14.974-21.077-14.974-21.269zm-101.566-37.877c-5.878 5.871-15.439 5.872-21.317 0-2.85-2.847-4.42-6.634-4.422-10.662s1.565-7.816 4.412-10.666c2.849-2.851 6.637-4.422 10.669-4.422 4.031 0 7.819 1.57 10.668 4.422l10.658 10.669zm51.015-106.702c-3.611-3.57-5.61-8.334-5.63-13.412-.019-5.079 1.943-9.857 5.526-13.455l1.262-1.266c3.58-3.594 8.345-5.576 13.417-5.582h.019c5.065 0 9.827 1.972 13.408 5.554l27.919 27.922-27.918 27.925zm2.007 96.049 26.119-26.126 27.669 27.357-26.425 26.126zm24.735 125.403c-3.582 3.582-8.343 5.554-13.408 5.554h-.001c-5.065 0-9.828-1.974-13.409-5.556-3.595-3.596-5.568-8.377-5.553-13.462s2.015-9.855 5.631-13.431l29.253-28.923 26.662 26.655z" fill="#f86460"/><path d="m195.549 497.163-.428 14.837h60.879l20.616-30-20.616-46.619h-41.229c-11.975 17.618-18.606 40.393-19.222 61.782z" fill="#fcd870"/></g><path d="m316.977 512-.545-15.481c-.733-21.14-7.36-43.712-19.2-61.139h-41.232v76.62z" fill="#f9c055"/><path d="m426.647 159.373c-8.507-8.514-19.819-13.203-31.855-13.203-12.035 0-23.347 4.689-31.854 13.203l-10.669 10.679-26.025-26.029 27.878-27.563c9.315-9.209 14.472-21.495 14.523-34.592.051-13.098-5.012-25.423-14.255-34.704l-1.262-1.267c-9.233-9.27-21.522-14.382-34.606-14.395-.018 0-.033 0-.051 0-13.063 0-25.346 5.086-34.587 14.327l-27.884 27.918v42.357l27.772 27.798-27.772 27.485v42.114l26.522 26.248-26.522 26.534v42.346l29.148 29.165c9.239 9.239 21.522 14.327 34.589 14.326 13.065-.001 25.349-5.09 34.586-14.33 9.274-9.275 14.36-21.607 14.322-34.723s-5.195-25.418-14.523-34.64l-29.122-28.794 27.275-27.264 10.694 10.684c8.774 8.766 20.3 13.149 31.825 13.149s23.051-4.383 31.825-13.149c8.509-8.501 13.198-19.806 13.204-31.834.004-12.028-4.675-23.338-13.176-31.846zm-149.496-64.448 27.913-27.92c3.583-3.583 8.344-5.555 13.409-5.555h.02c5.072.005 9.838 1.988 13.416 5.58l1.261 1.267c3.584 3.598 5.546 8.377 5.527 13.456-.02 5.078-2.019 9.841-5.63 13.412l-27.998 27.682zm55.915 194.798c3.616 3.575 5.615 8.345 5.63 13.43.016 5.085-1.957 9.866-5.553 13.463-3.581 3.582-8.343 5.555-13.408 5.556s-9.828-1.972-13.411-5.556l-29.167-29.159 26.662-26.651zm-29.364-71.146-26.431-26.133 27.676-27.363 26.13 26.133zm101.75-16.71c-5.876 5.872-15.44 5.872-21.317 0l-10.669-10.659 10.658-10.668c2.849-2.852 6.638-4.422 10.668-4.422 4.031 0 7.819 1.57 10.669 4.422 2.847 2.849 4.414 6.637 4.412 10.665-.001 4.028-1.572 7.815-4.421 10.662z" fill="#db3862"/></g></svg>