<svg height="512pt" viewBox="0 0 512.00026 512" width="512pt" xmlns="http://www.w3.org/2000/svg"><path d="m397.679688 205.136719-7.539063-21.199219c-1.914063-5.382812 2.171875-11.007812 7.882813-10.851562l22.492187.621093c1.871094.050781 3.699219-.542969 5.179687-1.683593l17.835938-13.722657c4.527344-3.480469 11.136719-1.332031 12.753906 4.144531l6.359375 21.582032c.53125 1.796875 1.660157 3.351562 3.203125 4.40625l18.5625 12.722656c4.710938 3.226562 4.710938 10.179688 0 13.410156l-18.5625 12.71875c-1.542968 1.058594-2.671875 2.613282-3.203125 4.40625l-6.359375 21.582032c-1.617187 5.480468-8.230468 7.628906-12.753906 4.144531l-17.835938-13.71875c-1.480468-1.140625-3.308593-1.738281-5.179687-1.683594l-22.492187.617187c-5.707032.15625-9.792969-5.46875-7.882813-10.847656l7.539063-21.199218c.628906-1.765626.628906-3.6875 0-5.449219zm0 0" fill="#f7ef87"/><path d="m390.140625 231.785156c-1.914063 5.378906 2.175781 11.003906 7.882813 10.847656l22.492187-.621093c1.871094-.050781 3.699219.542969 5.183594 1.683593l17.832031 13.722657c3.792969 2.917969 9.042969 1.871093 11.597656-1.765625-25.59375-15.554688-35.503906-53.835938-33.300781-82.019532-.429687.058594-.871094.085938-1.3125.074219l-22.492187-.621093c-5.707032-.15625-9.792969 5.46875-7.882813 10.847656l7.539063 21.203125c.628906 1.761719.628906 3.683593 0 5.445312zm0 0" fill="#efd176"/><path d="m127.441406 429.015625-30.925781 49.617187c-2.933594 4.707032-2.230469 10.816407 1.691406 14.738282l15.132813 15.136718c3.921875 3.921876 10.03125 4.621094 14.742187 1.6875l49.613281-30.921874zm0 0" fill="#8eafe2"/><path d="m127.441406 429.015625-14.394531 23.09375c.089844.089844.167969.191406.257813.28125l41.015624 41.019531c.09375.089844.191407.164063.285157.253906l23.089843-14.390624zm0 0" fill="#6a96d7"/><path d="m370.171875 266.808594-97.359375 97.359375c-8.359375 8.359375-21.910156 8.359375-30.265625 0-8.359375-8.359375-8.359375-21.910157 0-30.269531l97.355469-97.355469c46.132812-46.132813 46.132812-121.199219 0-167.328125-35.238282-35.238282-92.570313-35.238282-127.808594-.003906-26.523438 26.523437-26.523438 69.675781 0 96.195312 11.796875 11.796875 28.632812 16.941406 45.046875 13.765625 11.605469-2.246094 22.835937 5.339844 25.082031 16.945313 2.246094 11.605468-5.339844 22.832031-16.945312 25.082031-30.390625 5.882812-61.589844-3.660157-83.453125-25.523438-43.210938-43.210937-43.210938-113.519531 0-156.730469 51.925781-51.925781 136.417969-51.925781 188.347656 0 62.820313 62.820313 62.820313 165.042969 0 227.863282zm0 0" fill="#eda1ab"/><path d="m291.324219 285.117188-48.777344 48.78125c-8.359375 8.359374-8.359375 21.910156 0 30.269531 8.355469 8.359375 21.910156 8.359375 30.265625 0l48.78125-48.78125zm0 0" fill="#e26e7e"/><path d="m232.804688 302.355469-105.835938 105.835937c-8.433594 8.433594-8.433594 22.105469 0 30.535156l41.015625 41.019532c8.433594 8.429687 22.105469 8.429687 30.535156 0l105.839844-105.839844c8.429687-8.429688 8.429687-22.101562 0-30.535156l-41.019531-41.015625c-8.429688-8.433594-22.101563-8.433594-30.535156 0zm0 0" fill="#b49cdc"/><path d="m205.226562 329.933594-78.257812 78.257812c-8.433594 8.433594-8.433594 22.105469 0 30.535156l41.015625 41.019532c8.433594 8.429687 22.105469 8.429687 30.535156 0l28.089844-28.089844c-29.644531-20.230469-45.738281-75.746094-21.382813-121.722656zm0 0" fill="#908cd6"/><path d="m190.578125 416.136719c-14.183594-14.179688-15.765625-35.605469-21.25-50.304688l-42.359375 42.359375c-8.433594 8.433594-8.433594 22.105469 0 30.535156l41.015625 41.019532c8.433594 8.429687 22.105469 8.429687 30.535156 0l42.363281-42.363282c-14.703124-5.480468-36.125-7.066406-50.304687-21.246093zm0 0" fill="#a3defe"/><path d="m204.671875 425.820312c-5.089844-2.414062-9.910156-5.496093-14.097656-9.683593-14.179688-14.179688-15.761719-35.605469-21.246094-50.304688l-42.359375 42.359375c-8.433594 8.433594-8.433594 22.105469 0 30.535156l41.015625 41.019532c8.433594 8.429687 22.105469 8.429687 30.535156 0l28.089844-28.089844c-8.710937-5.945312-16.25-14.933594-21.9375-25.835938zm0 0" fill="#7acefa"/><path d="m231.558594 382.65625c-1.921875 0-3.839844-.734375-5.304688-2.199219-2.929687-2.929687-2.929687-7.675781 0-10.605469l21.976563-21.976562c2.929687-2.925781 7.675781-2.925781 10.605469 0 2.929687 2.929688 2.929687 7.679688 0 10.609375l-21.976563 21.972656c-1.464844 1.464844-3.382813 2.199219-5.300781 2.199219zm0 0" fill="#fff"/><path d="m361.519531 335.277344c-1.917969 0-3.839843-.730469-5.304687-2.195313-2.929688-2.929687-2.929688-7.679687 0-10.609375 12.640625-12.640625 39.121094-22.390625 62.964844-23.1875 4.117187-.136718 7.605468 3.105469 7.746093 7.246094.136719 4.140625-3.105469 7.609375-7.246093 7.746094-19.753907.660156-42.972657 8.917968-52.855469 18.804687-1.46875 1.464844-3.386719 2.195313-5.304688 2.195313zm0 0" fill="#8eafe2"/><path d="m261.617188 278.253906c-1.921876 0-3.839844-.734375-5.304688-2.199218-2.925781-2.925782-2.929688-7.671876-.007812-10.597657 1.976562-2.058593 9.15625-13.742187 10.519531-20.316406.839843-4.058594 4.808593-6.660156 8.863281-5.824219 4.058594.839844 6.664062 4.8125 5.824219 8.867188-2.007813 9.679687-10.785157 24.066406-14.59375 27.875-1.460938 1.460937-3.382813 2.195312-5.300781 2.195312zm0 0" fill="#8eafe2"/><path d="m98.808594 180.722656 26.257812 12.480469c6.664063 3.167969 8.070313 12.039063 2.710938 17.113281l-21.113282 19.984375c-1.757812 1.660157-2.886718 3.875-3.195312 6.269531l-3.757812 28.828126c-.953126 7.316406-8.957032 11.394531-15.4375 7.867187l-25.53125-13.90625c-2.121094-1.15625-4.578126-1.542969-6.949219-1.101563l-28.578125 5.335938c-7.253906 1.355469-13.609375-5-12.253906-12.253906l5.335937-28.578125c.441406-2.375.054687-4.828125-1.101563-6.949219l-13.90625-25.53125c-3.527343-6.480469.550782-14.484375 7.867188-15.4375l28.828125-3.757812c2.394531-.308594 4.609375-1.4375 6.269531-3.195313l19.984375-21.113281c5.074219-5.359375 13.945313-3.953125 17.113281 2.710937l12.484376 26.257813c1.035156 2.179687 2.792968 3.9375 4.972656 4.976562zm0 0" fill="#6fce91"/><path d="m58.742188 259.359375 25.527343 13.90625c5.765625 3.136719 12.722657.25 14.863281-5.570313-28.738281-10.226562-56.078124-62.972656-53.746093-101l-1.132813 1.195313c-1.660156 1.757813-3.875 2.886719-6.269531 3.195313l-28.828125 3.757812c-7.320312.953125-11.398438 8.957031-7.867188 15.4375l13.90625 25.53125c1.152344 2.121094 1.542969 4.574219 1.101563 6.949219l-5.335937 28.578125c-1.355469 7.253906 4.996093 13.609375 12.25 12.253906l28.578124-5.335938c2.375-.441406 4.832032-.054687 6.953126 1.101563zm0 0" fill="#3cb767"/><path d="m512 445.539062c0 29.835938-24.183594 54.019532-54.019531 54.019532-29.835938 0-54.019531-24.183594-54.019531-54.019532 0-29.832031 24.183593-54.019531 54.019531-54.019531 29.835937 0 54.019531 24.1875 54.019531 54.019531zm0 0" fill="#8eafe2"/><path d="m503.71875 474.269531c-63.421875-.015625-75.664062-50.355469-69.253906-77.375-18.050782 8.742188-30.503906 27.238281-30.503906 48.644531 0 29.835938 24.183593 54.019532 54.019531 54.019532 19.273437 0 36.179687-10.101563 45.738281-25.289063zm0 0" fill="#6a96d7"/><path d="m351.050781 409.019531c-1.917969 0-3.839843-.734375-5.304687-2.195312-2.929688-2.933594-2.929688-7.679688 0-10.609375l20.9375-20.9375c2.929687-2.929688 7.679687-2.929688 10.609375 0 2.925781 2.929687 2.925781 7.675781 0 10.605468l-20.941407 20.941407c-1.460937 1.460937-3.382812 2.195312-5.300781 2.195312zm0 0" fill="#efd176"/><path d="m371.988281 409.019531c-1.921875 0-3.839843-.734375-5.304687-2.195312l-20.9375-20.941407c-2.929688-2.929687-2.929688-7.675781 0-10.605468 2.929687-2.929688 7.675781-2.929688 10.605468 0l20.9375 20.9375c2.929688 2.929687 2.929688 7.675781 0 10.609375-1.460937 1.460937-3.382812 2.195312-5.300781 2.195312zm0 0" fill="#efd176"/><path d="m153.890625 305.632812c-4.140625 0-7.5-3.355468-7.5-7.5 0-4.140624 3.359375-7.5 7.5-7.5h29.609375c4.144531 0 7.5 3.355469 7.5 7.5 0 4.140626-3.355469 7.5-7.5 7.5zm0 0" fill="#a3defe"/><path d="m168.695312 320.4375c-4.144531 0-7.5-3.355469-7.5-7.5v-29.609375c0-4.144531 3.355469-7.5 7.5-7.5 4.144532 0 7.5 3.355469 7.5 7.5v29.609375c0 4.144531-3.355468 7.5-7.5 7.5zm0 0" fill="#a3defe"/><path d="m468.644531 75.804688h-29.609375c-4.144531 0-7.5-3.355469-7.5-7.5 0-4.140626 3.355469-7.5 7.5-7.5h29.609375c4.144531 0 7.5 3.359374 7.5 7.5 0 4.144531-3.355469 7.5-7.5 7.5zm0 0" fill="#6fce91"/><path d="m453.839844 90.609375c-4.140625 0-7.5-3.359375-7.5-7.5v-29.609375c0-4.144531 3.359375-7.5 7.5-7.5 4.144531 0 7.5 3.355469 7.5 7.5v29.609375c0 4.144531-3.359375 7.5-7.5 7.5zm0 0" fill="#6fce91"/><g fill="#b49cdc"><path d="m87.664062 109.875c-1.917968 0-3.839843-.730469-5.304687-2.195312-2.929687-2.929688-2.929687-7.679688 0-10.605469l20.9375-20.941407c2.929687-2.925781 7.679687-2.925781 10.609375 0 2.929688 2.933594 2.929688 7.679688 0 10.609376l-20.9375 20.9375c-1.464844 1.464843-3.386719 2.195312-5.304688 2.195312zm0 0"/><path d="m108.601562 109.875c-1.917968 0-3.839843-.730469-5.304687-2.195312l-20.9375-20.9375c-2.929687-2.929688-2.929687-7.679688 0-10.609376 2.929687-2.925781 7.679687-2.925781 10.609375 0l20.9375 20.941407c2.929688 2.929687 2.929688 7.675781 0 10.605469-1.464844 1.464843-3.386719 2.195312-5.304688 2.195312zm0 0"/></g></svg>