<svg id="Layer_1" enable-background="new 0 0 512 512" height="512" viewBox="0 0 512 512" width="512" xmlns="http://www.w3.org/2000/svg"><g><g fill="#ff5f85"><path d="m237.56 223.78c-5.23 2.04-10.38 3.77-15.45 5.22-17.23 4.95-33.46 6.75-47.93 6.75-37.09 0-62.69-11.8-64.27-12.54-7.29-3.45-11.99-10.76-11.95-18.82s4.66-15.34 11.98-18.71c.13-.06 20.32-9.89 48.26-34.59 17.26-15.27 31.25-34.13 39.38-53.12 7.1-16.6 9.02-31.81 5.26-41.73-3.7-9.79-14.41-14.76-31.83-14.76-16.88 0-22.02 6.56-23.7 8.71-10.45 13.33-6.7 41.14-4.57 49.82 2.8 11.11-3.93 22.36-15.03 25.16-11.1 2.81-22.37-3.95-25.18-15.06-1.36-5.4-12.61-53.69 12.03-85.35 8.79-11.3 25.72-24.76 56.45-24.76 5.44 0 10.48.34 15.15.97 36.33 4.83 50.25 26.83 55.45 40.58 7.63 20.16 5.52 46-5.93 72.75-10.5 24.52-28.26 48.62-50.03 67.87-5.01 4.43-9.83 8.45-14.38 12.09 12.88.29 25.6-1.29 38.04-4.75 4.44-1.22 8.84-2.68 13.2-4.38 10.66-4.17 22.68 1.12 26.83 11.79 4.16 10.67-1.12 22.7-11.78 26.86z"/><path d="m419.58 29.04c-14.6-25.74-40.63-29.04-61.67-29.04-21.05 0-47.08 3.3-61.68 29.04-9.75 17.23-13.39 41.3-13.39 88.84s3.64 71.61 13.39 88.84c14.6 25.74 40.63 29.04 61.68 29.04 21.04 0 47.07-3.3 61.67-29.04 9.76-17.23 13.39-41.3 13.39-88.84s-3.63-71.61-13.39-88.84zm-87.29 157.21c-7.09-12.5-8-43.11-8-68.37 0-25.27.91-55.87 8-68.37 2.03-3.57 4.55-8.02 25.62-8.02 21.06 0 23.58 4.45 25.61 8.02 7.09 12.5 7.99 43.1 7.99 68.37 0 25.26-.9 55.87-7.99 68.37-2.03 3.57-4.55 8.03-25.61 8.03-21.07 0-23.59-4.46-25.62-8.03z"/></g><path d="m369.59 492.89c-.85 10.86-9.93 19.11-20.63 19.11-.55 0-1.1-.02-1.66-.06-3.04-.24-5.87-1.12-8.38-2.51-6.9-3.81-11.31-11.42-10.65-19.8 7.69-97.64.09-189.98.01-190.9-.71-8.42 3.71-16.09 10.66-19.92 2.47-1.36 5.26-2.24 8.25-2.49 11.4-.97 21.43 7.5 22.4 18.91.32 3.9 7.97 96.51 0 197.66z" fill="#77e0ab"/><path d="m369.59 492.89c-.85 10.86-9.93 19.11-20.63 19.11-.55 0-1.1-.02-1.66-.06-3.04-.24-5.87-1.12-8.38-2.51 5.9-3.25 10.1-9.32 10.67-16.54 7.97-101.15.32-193.76 0-197.66-.61-7.17-4.8-13.18-10.65-16.42 2.47-1.36 5.26-2.24 8.25-2.49 11.4-.97 21.43 7.5 22.4 18.91.32 3.9 7.97 96.51 0 197.66z" fill="#65c1b0"/><g fill="#d2e1f9"><path d="m417.665 374.381c-3.746-1.765-8.216-.157-9.981 3.589-1.766 3.747-.159 8.216 3.588 9.981 30.719 14.471 45.912 38.935 46.177 39.366 1.408 2.335 3.887 3.627 6.429 3.627 1.315 0 2.647-.346 3.856-1.072 3.55-2.134 4.699-6.742 2.565-10.292-.698-1.162-17.509-28.652-52.634-45.199z"/><path d="m414.474 282.42c1.071 0 2.159-.23 3.191-.717 35.125-16.547 51.936-44.037 52.634-45.199 2.13-3.544.985-8.137-2.555-10.275-3.541-2.139-8.147-1-10.293 2.534-.15.247-15.342 24.844-46.179 39.37-3.747 1.766-5.354 6.234-3.588 9.981 1.279 2.715 3.976 4.306 6.79 4.306z"/><path d="m476.15 320.542h-36.273c-4.142 0-7.5 3.357-7.5 7.5s3.358 7.5 7.5 7.5h36.273c4.142 0 7.5-3.357 7.5-7.5s-3.358-7.5-7.5-7.5z"/><path d="m79.437 255.381c-35.125 16.547-51.936 44.037-52.634 45.199-2.13 3.545-.985 8.137 2.555 10.275 1.211.731 2.546 1.079 3.866 1.079 2.538 0 5.015-1.288 6.427-3.613.15-.247 15.341-24.844 46.179-39.37 3.747-1.766 5.354-6.234 3.588-9.981-1.766-3.748-6.234-5.354-9.981-3.589z"/><path d="m85.83 149.133c-30.837-14.526-46.029-39.123-46.179-39.37-2.137-3.538-6.738-4.682-10.283-2.551-3.55 2.134-4.699 6.742-2.565 10.292.698 1.162 17.509 28.652 52.634 45.199 1.033.486 2.121.717 3.191.717 2.814 0 5.511-1.592 6.79-4.306 1.766-3.747.159-8.216-3.588-9.981z"/><path d="m64.726 209.042c0-4.143-3.358-7.5-7.5-7.5h-36.274c-4.142 0-7.5 3.357-7.5 7.5s3.358 7.5 7.5 7.5h36.273c4.143 0 7.501-3.357 7.501-7.5z"/></g><g fill="#be94ff"><path d="m63.444 382.574c-12.416 0-22.517 10.087-22.517 22.485s10.101 22.485 22.517 22.485 22.518-10.087 22.518-22.485-10.102-22.485-22.518-22.485z"/><ellipse cx="476.031" cy="149.765" rx="22.517" ry="22.485"/></g><g fill="#be94ff"><circle cx="63.411" cy="57.144" r="7.5"/><circle cx="78.431" cy="334.384" r="7.5"/><circle cx="285.341" cy="262.174" r="7.5"/><circle cx="470.821" cy="75.533" r="7.5"/><circle cx="439.141" cy="459.524" r="7.5"/></g><g fill="#b2527e"><path d="m235.68 114.3c-10.5 24.52-28.26 48.62-50.03 67.87-5.01 4.43-9.83 8.45-14.38 12.09-12.7.11-24.44-2.39-24.44-2.39 119.43-99.19 86.94-169.35 39.33-190.9 36.33 4.83 50.25 26.83 55.45 40.58 7.63 20.16 5.52 46-5.93 72.75z"/><path d="m237.56 223.78c-5.23 2.04-10.38 3.77-15.45 5.22 0 0 14.32-10.13 10.02-25s-22.82-14.48-22.82-14.48v-.01c4.44-1.22 8.84-2.68 13.2-4.38 10.66-4.17 22.68 1.12 26.83 11.79 4.16 10.67-1.12 22.7-11.78 26.86z"/><path d="m432.97 117.88c0 47.54-3.63 71.61-13.39 88.84-14.6 25.74-40.63 29.04-61.67 29.04 0 0 55.79-7.45 55.79-117.88 0-110.42-55.79-117.88-55.79-117.88 21.04 0 47.07 3.3 61.67 29.04 9.76 17.23 13.39 41.3 13.39 88.84z"/></g><g><path d="m269.5 500.022c-5.23 2.04-10.38 3.77-15.45 5.22-17.23 4.95-33.46 6.75-47.93 6.75-37.09 0-62.69-11.8-64.27-12.54-7.29-3.45-11.99-10.76-11.95-18.82s4.66-15.34 11.98-18.71c.13-.06 20.32-9.89 48.26-34.59 17.26-15.27 31.25-34.13 39.38-53.12 7.1-16.6 9.02-31.81 5.26-41.73-3.7-9.79-14.41-14.76-31.83-14.76-16.88 0-22.02 6.56-23.7 8.71-10.45 13.33-6.7 41.14-4.57 49.82 2.8 11.11-3.93 22.36-15.03 25.16-11.1 2.81-22.37-3.95-25.18-15.06-1.36-5.4-12.61-53.69 12.03-85.35 8.79-11.3 25.72-24.76 56.45-24.76 5.44 0 10.48.34 15.15.97 36.33 4.83 50.25 26.83 55.45 40.58 7.63 20.16 5.52 46-5.93 72.75-10.5 24.52-28.26 48.62-50.03 67.87-5.01 4.43-9.83 8.45-14.38 12.09 12.88.29 25.6-1.29 38.04-4.75 4.44-1.22 8.84-2.68 13.2-4.38 10.66-4.17 22.68 1.12 26.83 11.79 4.16 10.669-1.12 22.7-11.78 26.86z" fill="#77e0ab"/><g fill="#65c1b0"><path d="m267.62 390.542c-10.5 24.52-28.26 48.62-50.03 67.87-5.01 4.43-9.83 8.45-14.38 12.09-12.7.11-24.44-2.39-24.44-2.39 119.43-99.19 86.94-169.35 39.33-190.9 36.33 4.83 50.25 26.83 55.45 40.58 7.63 20.159 5.52 46-5.93 72.75z"/><path d="m269.5 500.022c-5.23 2.04-10.38 3.77-15.45 5.22 0 0 14.32-10.13 10.02-25s-22.82-14.48-22.82-14.48v-.01c4.44-1.22 8.84-2.68 13.2-4.38 10.66-4.17 22.68 1.12 26.83 11.79 4.16 10.669-1.12 22.7-11.78 26.86z"/></g></g></g></svg>