<?xml version="1.0" encoding="iso-8859-1"?>
<!-- Generator: Adobe Illustrator 19.0.0, SVG Export Plug-In . SVG Version: 6.00 Build 0)  -->
<svg version="1.1" id="Capa_1" xmlns="http://www.w3.org/2000/svg" xmlns:xlink="http://www.w3.org/1999/xlink" x="0px" y="0px"
	 viewBox="0 0 511.998 511.998" style="enable-background:new 0 0 511.998 511.998;" xml:space="preserve">
<g>
	<path style="fill:#76C8D6;" d="M267.736,332.881c4.167,4.812,11.51,8.755,23.396,1.893c2.921-1.687,5.047-3.831,6.48-6.277
		c-0.002-0.001-0.002-0.003-0.004-0.004c7.272-12.417-3.307-32.584-18.475-39.865c-0.002-0.002-0.002-0.004-0.002-0.006
		c-3.6-1.727-7.458-2.729-11.396-2.729c-7.009,0-13.76,3.172-19.258,7.963c-9.558,8.328-15.314,21.54-12.034,31.479
		c-0.002,0.003-0.003,0.005-0.004,0.008c1.242,3.762,3.781,7.053,7.901,9.432C256.227,341.636,263.571,337.692,267.736,332.881z"/>
	<path style="fill:#FFBD50;" d="M203.712,414.987c15.828-15.829-11.167-43.145-32.139-37.526
		c-20.972,5.619-30.691,42.773-9.069,48.567c12.086,3.239,17.623-1.967,20.157-7.187
		C187.465,422.095,194.862,423.835,203.712,414.987z"/>
	<path style="fill:#F13D7C;" d="M350.43,365.134c-19.529-5.232-44.669,20.205-29.928,34.946c8.239,8.24,15.128,6.62,19.601,3.59
		c2.36,4.861,7.516,9.709,18.771,6.693C379.013,404.967,369.961,370.367,350.43,365.134z"/>
	<path style="fill:#76C8D6;" d="M267.738,285.892c67.654,0,122.834-61.968,122.834-137.947
		C390.571,71.966,335.392,9.999,267.738,9.999c-67.655,0-122.836,61.968-122.836,137.947S200.083,285.892,267.738,285.892z"/>
	<path style="fill:#FFBD50;" d="M106.473,134.5c13.1-3.511,26.355-4.258,39.261-2.582c-0.541,5.259-0.83,10.605-0.83,16.027
		c0,69.548,45.833,127.065,105.425,136.561c-0.505,3.157-1.125,6.273-1.851,9.349c-9.558,8.328-15.314,21.54-12.034,31.479
		c-13.908,25.288-36.462,44.515-64.87,52.127c-59.741,16.007-122.745-25.405-140.721-92.497
		C12.874,217.873,46.731,150.508,106.473,134.5z"/>
	<path style="fill:#F13D7C;" d="M411.057,138.874c55.636,14.907,87.164,77.642,70.423,140.122
		c-16.742,62.48-75.414,101.047-131.049,86.139c-21.79-5.839-39.88-19.018-52.821-36.642c7.272-12.417-3.307-32.584-18.475-39.865
		c-0.269-1.079-0.523-2.165-0.763-3.255c62.858-6.056,112.197-65.265,112.197-137.427c0-4.117-0.17-8.19-0.484-12.215
		C397.064,135.977,404.084,137.005,411.057,138.874z"/>
</g>
<path d="M181.16,134.281c0.74,0.167,1.48,0.247,2.208,0.247c4.571,0,8.697-3.156,9.745-7.802
	c3.522-15.62,10.432-29.876,19.981-41.229c3.555-4.225,3.011-10.534-1.215-14.088c-4.226-3.555-10.533-3.012-14.088,1.215
	c-11.6,13.79-19.964,30.977-24.186,49.704C172.39,127.715,175.773,133.067,181.16,134.281z"/>
<path d="M229.761,68.837c1.62,0,3.262-0.393,4.782-1.22l0.316-0.175c4.801-2.728,6.485-8.834,3.757-13.635
	c-2.729-4.801-8.828-6.483-13.629-3.757c-0.003,0.002-0.045,0.025-0.049,0.027c-4.845,2.644-6.613,8.703-3.973,13.55
	C222.778,66.954,226.216,68.837,229.761,68.837z"/>
<path d="M75.038,208.628c-5.034-2.269-10.955-0.026-13.224,5.008c-6.622,14.696-9.76,31.51-9.075,48.625
	c0.215,5.381,4.645,9.599,9.984,9.599c0.135,0,0.271-0.002,0.407-0.008c5.518-0.221,9.812-4.873,9.591-10.391
	c-0.562-14.031,1.972-27.727,7.326-39.609C82.314,216.818,80.072,210.897,75.038,208.628z"/>
<path d="M81.185,185.832l-0.003,0.003c-4.003,3.803-4.164,10.131-0.361,14.134c1.965,2.069,4.604,3.112,7.249,3.112
	c2.475,0,4.953-0.913,6.888-2.751l0.288-0.279c3.924-3.884,3.96-10.219,0.076-14.143C91.436,181.983,85.108,181.948,81.185,185.832z
	"/>
<path d="M482.343,186.604c-14.6-29.05-38.997-49.431-68.698-57.389c-4.756-1.274-9.603-2.209-14.486-2.798
	C389.771,55.008,334.418,0,267.738,0C202.701,0,148.436,52.329,137.09,121.169c-11.198-0.449-22.402,0.779-33.206,3.674
	c-31.687,8.491-57.719,30.241-73.301,61.244c-15.385,30.612-18.72,66.647-9.39,101.467c8.009,29.892,24.347,55.686,47.246,74.595
	c22.076,18.231,48.904,28.4,75.687,28.734c-2.487,5.725-3.811,11.813-3.811,17.481c-0.001,13.613,7.51,24.083,19.601,27.322
	c3.325,0.891,6.522,1.342,9.505,1.342c2.513,0,4.906-0.337,7.156-0.969c0.919,6.433,1.697,14.257,2.462,21.947
	c0.946,9.514,2.018,20.295,3.54,31.273c0.694,5.004,4.979,8.626,9.892,8.626c0.457,0,0.921-0.031,1.386-0.096
	c5.47-0.759,9.289-5.808,8.531-11.277c-1.47-10.595-2.521-21.172-3.449-30.504c-0.972-9.775-1.808-18.173-2.909-25.156
	c5.139-1.198,10.083-4.146,14.75-8.815c7.869-7.868,9.827-18.548,5.373-29.3c-2.828-6.826-7.879-12.875-14.057-17.425
	c13.782-8.189,25.833-19.368,35.49-33.012c0.57,0.384,1.148,0.761,1.756,1.112c5.778,3.337,11.435,5.027,16.814,5.027
	c0.451,0,0.898-0.017,1.343-0.04c-0.823,7.16-2.268,15.974-3.763,25.075c-6.704,40.826-15.887,96.737,5.341,133.504
	c1.852,3.208,5.212,5,8.668,5c1.696,0,3.416-0.432,4.99-1.341c4.782-2.761,6.42-8.877,3.66-13.658
	c-17.655-30.579-9.142-82.416-2.926-120.265c1.815-11.053,3.356-20.469,4.144-28.336c0.564,0.038,1.131,0.061,1.705,0.061h0.001
	c5.377,0,11.035-1.692,16.813-5.027c0.176-0.102,0.336-0.218,0.51-0.323c7.15,7.971,15.255,14.715,24.138,20.108
	c-5.481,4.234-9.947,9.734-12.499,15.897c-4.196,10.132-2.271,20.612,5.153,28.035c4.082,4.082,8.395,6.786,12.879,8.085
	c-10.021,40.263-2.649,68.904-2.292,70.239c1.195,4.47,5.236,7.419,9.653,7.419c0.855,0,1.724-0.11,2.589-0.342
	c5.334-1.426,8.503-6.907,7.077-12.241c-0.073-0.274-6.377-24.796,2.298-59.929c2.14,0.595,4.412,0.914,6.798,0.914
	c0,0,0.001,0,0.002,0c2.837,0,5.874-0.429,9.029-1.274c11.573-3.102,18.763-13.105,18.763-26.108c0-5.063-1.12-10.481-3.226-15.631
	c24.764-0.551,49.505-10.029,69.911-26.879c21.436-17.702,36.728-41.844,44.224-69.819
	C499.87,248.994,496.747,215.263,482.343,186.604z M267.738,19.997c58.817,0,107.259,51.298,112.379,116.509
	c0,0.001,0,0.001,0,0.003c0.149,1.913,0.262,3.824,0.338,5.72c0.003,0.08,0.005,0.161,0.008,0.241
	c0.034,0.87,0.061,1.738,0.078,2.601c0.007,0.347,0.007,0.696,0.012,1.043c0.008,0.612,0.019,1.226,0.019,1.832
	c0,63.835-42.506,118.368-97.738,126.799c-0.015,0.002-0.03,0.005-0.046,0.007c-0.819,0.125-1.642,0.237-2.466,0.341
	c-0.097,0.013-0.194,0.026-0.291,0.038c-0.801,0.099-1.605,0.186-2.411,0.266c-3.258,0.322-6.552,0.497-9.882,0.497
	c-5.515,0-10.937-0.459-16.242-1.331c-0.579-0.095-1.157-0.195-1.732-0.3c-0.346-0.063-0.691-0.129-1.037-0.195
	c-0.518-0.1-1.035-0.202-1.55-0.31c-0.402-0.085-0.803-0.173-1.204-0.262c-0.466-0.104-0.932-0.207-1.396-0.317
	c-0.447-0.106-0.892-0.219-1.337-0.331c-0.424-0.106-0.848-0.211-1.27-0.324c-0.48-0.128-0.956-0.263-1.434-0.397
	c-0.39-0.11-0.781-0.216-1.17-0.331c-0.505-0.15-1.007-0.308-1.51-0.464c-0.361-0.113-0.724-0.22-1.084-0.337
	c-0.5-0.162-0.995-0.335-1.492-0.504c-0.958-0.327-1.913-0.667-2.86-1.023c-0.198-0.074-0.398-0.145-0.596-0.22
	c-0.661-0.253-1.318-0.516-1.974-0.782c-0.151-0.062-0.304-0.12-0.455-0.183c-0.706-0.291-1.409-0.591-2.108-0.898
	c-0.087-0.038-0.175-0.075-0.262-0.113c-0.766-0.337-1.527-0.684-2.285-1.04c-0.003-0.001-0.007-0.003-0.011-0.005
	c-38.108-17.926-65.422-58.895-69.345-106.455c-0.004-0.053-0.008-0.106-0.013-0.159c-0.071-0.874-0.133-1.75-0.188-2.627
	c-0.017-0.269-0.03-0.539-0.045-0.808c-0.04-0.702-0.078-1.405-0.108-2.109c-0.02-0.502-0.035-1.005-0.051-1.508
	c-0.016-0.504-0.035-1.007-0.046-1.512c-0.021-1.033-0.035-2.068-0.035-3.107c0-1.198,0.017-2.403,0.047-3.612
	c0.004-0.179,0.013-0.357,0.018-0.537c0.031-1.063,0.07-2.128,0.125-3.195c0.006-0.132,0.015-0.263,0.022-0.395
	c0.06-1.119,0.131-2.239,0.217-3.359c0.008-0.105,0.017-0.211,0.025-0.316c0.088-1.119,0.189-2.239,0.302-3.357
	C162.135,69.558,209.925,19.997,267.738,19.997z M196.641,407.917c-2.271,2.27-4.429,3.572-5.923,3.572
	c-0.718,0-1.541-0.312-2.449-0.926c-0.064-0.044-0.134-0.078-0.2-0.12c-0.188-0.121-0.379-0.237-0.574-0.345
	c-0.118-0.065-0.237-0.126-0.357-0.187c-0.183-0.091-0.367-0.177-0.555-0.257c-0.131-0.056-0.262-0.11-0.395-0.16
	c-0.186-0.07-0.375-0.133-0.565-0.191c-0.135-0.042-0.269-0.085-0.405-0.121c-0.204-0.054-0.41-0.097-0.617-0.138
	c-0.123-0.025-0.245-0.053-0.369-0.073c-0.25-0.04-0.502-0.065-0.755-0.086c-0.083-0.007-0.165-0.02-0.248-0.024
	c-0.69-0.04-1.389-0.009-2.085,0.099c-0.037,0.006-0.074,0.016-0.111,0.022c-0.301,0.05-0.601,0.111-0.899,0.189
	c-0.02,0.005-0.04,0.007-0.06,0.013c-0.088,0.023-0.171,0.058-0.258,0.085c-0.222,0.066-0.444,0.134-0.665,0.217
	c-0.141,0.053-0.277,0.115-0.415,0.174c-0.134,0.057-0.27,0.105-0.402,0.168c-0.047,0.023-0.09,0.051-0.137,0.075
	c-0.139,0.069-0.272,0.146-0.408,0.222c-0.174,0.097-0.347,0.195-0.513,0.301c-0.116,0.074-0.229,0.154-0.341,0.233
	c-0.177,0.124-0.35,0.25-0.517,0.383c-0.097,0.078-0.191,0.158-0.284,0.239c-0.171,0.148-0.336,0.298-0.495,0.455
	c-0.085,0.084-0.168,0.169-0.249,0.256c-0.155,0.165-0.304,0.334-0.447,0.509c-0.077,0.093-0.152,0.186-0.225,0.282
	c-0.136,0.179-0.264,0.362-0.387,0.549c-0.068,0.102-0.137,0.203-0.201,0.308c-0.12,0.197-0.228,0.398-0.333,0.602
	c-0.042,0.08-0.091,0.154-0.13,0.235c-0.94,1.936-1.972,2.558-4.246,2.558c-1.236,0-2.693-0.223-4.329-0.661
	c-1.308-0.35-4.779-1.281-4.779-8.006c0-8.277,5.922-19.121,13.849-21.245c1.012-0.271,2.103-0.409,3.243-0.409
	c7.778,0,17.253,6.401,20.275,13.699C199.349,404.44,198.091,406.467,196.641,407.917z M168.986,367.803
	c-7.671,2.056-15.577,3.098-23.498,3.098c-47.844,0-91.013-36.402-104.979-88.524c-8.06-30.077-5.239-61.085,7.941-87.31
	c12.984-25.835,34.509-43.914,60.61-50.907c7.668-2.055,15.572-3.098,23.493-3.098c0.83,0,1.662,0.012,2.496,0.035
	c-0.015,0.362-0.021,0.722-0.034,1.084c-0.025,0.738-0.054,1.475-0.07,2.216c-0.026,1.188-0.041,2.372-0.041,3.551
	c0,1.19,0.015,2.378,0.041,3.565c0.01,0.479,0.029,0.956,0.043,1.434c0.021,0.691,0.042,1.383,0.071,2.073
	c0.026,0.617,0.06,1.232,0.093,1.848c0.028,0.527,0.057,1.054,0.09,1.58c0.045,0.717,0.097,1.432,0.151,2.146
	c0.031,0.399,0.063,0.799,0.096,1.198c0.068,0.813,0.141,1.624,0.221,2.432c0.025,0.258,0.053,0.516,0.08,0.774
	c0.096,0.931,0.198,1.859,0.31,2.785c0.007,0.056,0.014,0.111,0.021,0.167c0.795,6.519,1.972,12.902,3.506,19.125
	c0.016,0.065,0.031,0.13,0.047,0.195c0.225,0.908,0.458,1.812,0.699,2.713c0.064,0.238,0.127,0.476,0.191,0.714
	c0.207,0.764,0.419,1.526,0.638,2.284c0.12,0.419,0.243,0.837,0.366,1.254c0.176,0.593,0.353,1.186,0.535,1.775
	c0.206,0.67,0.42,1.337,0.635,2.004c0.112,0.344,0.221,0.69,0.335,1.034c5.503,16.673,13.695,32.232,24.308,45.849
	c14.082,18.068,31.759,31.907,51.396,40.583c0.287,0.127,0.575,0.25,0.863,0.375c1.373,0.594,2.754,1.164,4.145,1.707
	c0.596,0.233,1.191,0.468,1.79,0.691c0.702,0.262,1.405,0.517,2.111,0.765c0.934,0.33,1.874,0.646,2.817,0.954
	c0.684,0.222,1.369,0.439,2.057,0.648c1.038,0.318,2.081,0.622,3.128,0.912c0.281,0.078,0.557,0.169,0.838,0.245
	c-0.018,0.021-0.034,0.043-0.051,0.063c-0.391,0.466-0.772,0.938-1.146,1.415c-0.366,0.466-0.718,0.939-1.065,1.414
	c-0.001,0.002-0.002,0.004-0.004,0.005c-1.725,2.362-3.214,4.832-4.448,7.363c-0.08,0.162-0.155,0.325-0.233,0.487
	c-0.17,0.359-0.343,0.718-0.502,1.08c-0.948,2.123-1.721,4.271-2.294,6.412c-0.841,3.138-1.228,6.209-1.228,9.172
	c-0.001,0.239-0.009,0.478-0.005,0.715c0.006,0.284,0.023,0.565,0.037,0.847c0.025,0.591,0.066,1.178,0.125,1.761
	c0.008,0.072,0.015,0.143,0.023,0.215c0.036,0.336,0.062,0.673,0.109,1.006C212.652,345.89,192.584,361.48,168.986,367.803z
	 M279.319,328.462L279.319,328.462c-1.08,0-2.401-0.253-4.024-2.129c-0.044-0.051-0.095-0.095-0.14-0.145
	c-0.164-0.181-0.331-0.356-0.507-0.524c-0.081-0.078-0.165-0.153-0.248-0.228c-0.173-0.155-0.352-0.304-0.535-0.447
	c-0.089-0.069-0.179-0.138-0.27-0.204c-0.194-0.14-0.393-0.271-0.596-0.397c-0.085-0.053-0.17-0.108-0.257-0.158
	c-0.231-0.134-0.469-0.256-0.71-0.371c-0.064-0.03-0.125-0.064-0.189-0.093c-1.255-0.567-2.634-0.879-4.063-0.883
	c-0.015,0-0.03-0.003-0.045-0.003c-0.071,0-0.141,0.01-0.211,0.011c-0.253,0.006-0.507,0.016-0.763,0.042
	c-0.147,0.015-0.292,0.039-0.437,0.06c-0.145,0.021-0.289,0.032-0.435,0.06c-0.05,0.01-0.098,0.025-0.148,0.036
	c-0.156,0.032-0.309,0.072-0.462,0.111c-0.19,0.048-0.379,0.097-0.564,0.156c-0.133,0.042-0.264,0.091-0.396,0.139
	c-0.201,0.073-0.4,0.149-0.594,0.234c-0.114,0.05-0.226,0.104-0.338,0.158c-0.203,0.098-0.402,0.201-0.596,0.312
	c-0.103,0.059-0.205,0.119-0.306,0.182c-0.193,0.12-0.381,0.245-0.565,0.377c-0.097,0.07-0.194,0.14-0.289,0.213
	c-0.178,0.138-0.35,0.282-0.517,0.432c-0.092,0.081-0.184,0.16-0.273,0.245c-0.167,0.159-0.323,0.326-0.478,0.496
	c-0.061,0.066-0.128,0.125-0.187,0.194c-1.622,1.873-2.943,2.126-4.021,2.126c-1.253,0-3.453-0.408-6.815-2.349
	c-0.857-0.495-2.542-1.482-3.368-3.789c-0.013-0.041-0.021-0.083-0.034-0.125c-0.447-1.354-0.533-2.939-0.314-4.646
	c0.016-0.118,0.037-0.242,0.056-0.363c0.042-0.276,0.09-0.555,0.148-0.837c0.048-0.234,0.108-0.478,0.168-0.724
	c0.062-0.252,0.121-0.503,0.194-0.758c0.019-0.066,0.039-0.133,0.058-0.199c1.37-4.579,4.551-9.58,8.799-13.28
	c0.192-0.167,0.377-0.342,0.555-0.522c3.612-2.999,7.852-4.98,12.135-4.98c2.246,0,4.479,0.55,6.617,1.501
	c0.152,0.083,0.298,0.175,0.455,0.25c4.416,2.12,8.509,5.955,11.339,10.398c0.024,0.038,0.05,0.077,0.074,0.115
	c0.234,0.37,0.458,0.745,0.673,1.123c0.043,0.076,0.084,0.152,0.126,0.228c0.173,0.31,0.34,0.623,0.5,0.937
	c0.043,0.086,0.088,0.171,0.131,0.256c0.191,0.385,0.374,0.772,0.544,1.162c0.012,0.026,0.022,0.053,0.034,0.08
	c0.174,0.401,0.337,0.803,0.488,1.207c0.006,0.017,0.013,0.033,0.019,0.05c0.158,0.428,0.304,0.856,0.436,1.287
	c0.04,0.129,0.08,0.265,0.12,0.407c0.001,0.004,0.003,0.009,0.004,0.014c0.04,0.14,0.079,0.287,0.118,0.438
	c0.081,0.311,0.146,0.608,0.209,0.901c0.451,2.165,0.642,5.008-0.639,7.195c-0.014,0.024-0.023,0.05-0.037,0.075
	c-0.886,1.477-2.119,2.201-2.812,2.601C282.77,328.055,280.572,328.462,279.319,328.462z M356.289,400.705
	c-1.467,0.393-2.763,0.592-3.853,0.592l0,0c-1.859,0-2.577-0.429-3.337-1.994c-0.004-0.009-0.01-0.017-0.014-0.025
	c-0.152-0.31-0.319-0.612-0.501-0.905c-0.031-0.05-0.067-0.095-0.099-0.144c-0.155-0.239-0.317-0.473-0.492-0.699
	c-0.06-0.077-0.126-0.149-0.189-0.225c-0.156-0.19-0.316-0.376-0.487-0.554c-0.074-0.077-0.152-0.149-0.228-0.224
	c-0.169-0.166-0.343-0.328-0.525-0.482c-0.085-0.072-0.174-0.141-0.262-0.21c-0.18-0.142-0.363-0.28-0.554-0.41
	c-0.102-0.069-0.205-0.136-0.31-0.202c-0.182-0.115-0.368-0.224-0.559-0.328c-0.123-0.067-0.247-0.131-0.372-0.193
	c-0.179-0.087-0.361-0.168-0.546-0.246c-0.144-0.061-0.289-0.119-0.436-0.173c-0.073-0.026-0.141-0.06-0.215-0.085
	c-0.115-0.039-0.23-0.064-0.345-0.098c-0.092-0.028-0.181-0.064-0.274-0.09c-0.046-0.013-0.093-0.016-0.14-0.028
	c-0.368-0.093-0.737-0.169-1.107-0.22c-0.017-0.002-0.033-0.007-0.05-0.009c-0.41-0.054-0.819-0.077-1.226-0.08
	c-0.021,0-0.043-0.004-0.064-0.004c-0.039,0-0.077,0.008-0.116,0.009c-0.42,0.005-0.837,0.035-1.249,0.093
	c-0.055,0.007-0.11,0.012-0.165,0.02c-0.443,0.069-0.878,0.169-1.305,0.295c-0.075,0.022-0.148,0.049-0.223,0.073
	c-0.387,0.125-0.767,0.271-1.135,0.441c-0.05,0.023-0.101,0.042-0.151,0.066c-0.401,0.193-0.785,0.418-1.158,0.663
	c-0.034,0.023-0.072,0.038-0.107,0.061c-0.729,0.494-1.367,0.745-1.895,0.745c-1.193,0-3.073-1.169-5.03-3.126
	c-0.841-0.841-2.407-2.407-0.818-6.243c2.722-6.569,11.249-12.332,18.248-12.332c1.001,0,1.957,0.12,2.841,0.357
	c7.09,1.9,12.387,11.662,12.388,19.121C360.23,399.649,357.467,400.389,356.289,400.705z M471.821,276.407
	c-12.926,48.24-52.854,81.93-97.098,81.93c-7.316,0-14.619-0.963-21.705-2.862c-17.207-4.61-32.326-14.462-44.021-28.627
	c0.747-2.854,1.049-5.884,0.912-9.014c-0.011-0.271-0.041-0.547-0.059-0.821c-0.035-0.51-0.069-1.021-0.127-1.536
	c-0.044-0.402-0.11-0.809-0.169-1.214c-0.059-0.4-0.116-0.801-0.189-1.203c-0.079-0.437-0.175-0.876-0.271-1.316
	c-0.085-0.388-0.172-0.776-0.27-1.166c-0.048-0.19-0.081-0.378-0.132-0.569c-0.121-0.45-0.254-0.9-0.392-1.351
	c-0.002-0.008-0.004-0.015-0.006-0.023c-0.001-0.003-0.002-0.006-0.003-0.009c-0.211-0.69-0.444-1.379-0.695-2.067
	c-0.072-0.201-0.15-0.399-0.226-0.599c-0.157-0.412-0.319-0.822-0.49-1.232c-0.134-0.325-0.268-0.65-0.41-0.973
	c-0.033-0.073-0.068-0.146-0.101-0.22c-1.877-4.215-4.392-8.204-7.406-11.765c0.393-0.105,0.78-0.23,1.172-0.34
	c0.619-0.173,1.236-0.354,1.852-0.537c24.354-7.206,46.47-22.026,63.783-43.101c15.548-18.926,26.252-41.763,31.363-66.335
	c0.048-0.23,0.092-0.463,0.14-0.693c0.181-0.888,0.357-1.776,0.523-2.669c0.082-0.438,0.158-0.878,0.236-1.317
	c0.123-0.692,0.244-1.384,0.358-2.078c0.091-0.552,0.176-1.106,0.262-1.66c0.09-0.589,0.18-1.178,0.264-1.768
	c0.089-0.62,0.173-1.242,0.254-1.865c0.07-0.534,0.137-1.067,0.202-1.603c0.08-0.658,0.156-1.318,0.228-1.979
	c0.055-0.509,0.107-1.02,0.158-1.53c0.067-0.679,0.133-1.359,0.192-2.041c0.043-0.501,0.082-1.002,0.12-1.504
	c0.053-0.688,0.107-1.377,0.151-2.069c0.033-0.506,0.059-1.014,0.087-1.52c0.038-0.688,0.078-1.375,0.108-2.065
	c0.022-0.52,0.036-1.04,0.053-1.559c0.023-0.683,0.05-1.365,0.064-2.05c0.011-0.521,0.012-1.044,0.018-1.566
	c0.008-0.66,0.022-1.317,0.022-1.979c0-0.087-0.003-0.173-0.003-0.26c0-0.289-0.001-0.579-0.003-0.869
	c2.66,0.444,5.299,1.017,7.906,1.715c24.114,6.461,44.004,23.172,56.007,47.054C476.675,219.857,479.283,248.56,471.821,276.407z"/>
<g>
</g>
<g>
</g>
<g>
</g>
<g>
</g>
<g>
</g>
<g>
</g>
<g>
</g>
<g>
</g>
<g>
</g>
<g>
</g>
<g>
</g>
<g>
</g>
<g>
</g>
<g>
</g>
<g>
</g>
</svg>
