<svg id="Capa_1" enable-background="new 0 0 512 512" height="512" viewBox="0 0 512 512" width="512" xmlns="http://www.w3.org/2000/svg"><g><g><g><circle cx="256" cy="245" fill="#fee45a" r="245"/></g></g><g><path d="m185.219 427.785v55.142c0 5.011 4.062 9.073 9.073 9.073 5.011 0 9.073-4.062 9.073-9.073v-46.555c-6.272-2.449-12.331-5.326-18.146-8.587z" fill="#fb8801"/><path d="m216.073 440.666v62.261c0 5.011 4.062 9.073 9.073 9.073 5.011 0 9.073-4.062 9.073-9.073v-58.31c-6.184-.935-12.241-2.26-18.146-3.951z" fill="#fea613"/><path d="m154.365 404.627v48.3c0 5.011 4.062 9.073 9.073 9.073 5.011 0 9.073-4.062 9.073-9.073v-33.154c-6.456-4.555-12.523-9.625-18.146-15.146z" fill="#fea613"/><path d="m256 446.251c-3.048 0-6.071-.106-9.073-.292v56.968c0 5.011 4.062 9.073 9.073 9.073s9.073-4.062 9.073-9.073v-56.968c-3.002.186-6.025.292-9.073.292z" fill="#fb8801"/><path d="m277.781 444.617v58.31c0 5.011 4.062 9.073 9.073 9.073s9.073-4.062 9.073-9.073v-62.261c-5.905 1.691-11.962 3.016-18.146 3.951z" fill="#fea613"/><path d="m308.635 436.372v46.555c0 5.011 4.062 9.073 9.073 9.073s9.073-4.062 9.073-9.073v-55.142c-5.815 3.261-11.874 6.138-18.146 8.587z" fill="#fb8801"/><path d="m339.489 419.773v33.154c0 5.011 4.062 9.073 9.073 9.073s9.073-4.062 9.073-9.073v-48.3c-5.623 5.521-11.69 10.591-18.146 15.146z" fill="#fea613"/></g><g><path d="m271.425 311.748c-5.043-1.235-10.233-1.861-15.425-1.861s-10.382.626-15.425 1.861l-124.813 30.562c17.841 60.586 73.953 104.941 140.238 104.941s122.397-44.355 140.238-104.941z" fill="#e41f2d"/></g><g><path d="m271.425 311.748c-5.043-1.235-10.233-1.861-15.425-1.861s-10.382.626-15.425 1.861l-105.362 25.8c15.681 51.846 63.893 89.704 120.788 89.704s105.106-37.858 120.788-89.704z" fill="#fd4755"/></g><path d="m271.425 311.748c-5.043-1.235-10.233-1.861-15.425-1.861s-10.382.626-15.425 1.861l-69.863 17.107c4.338 13.221 11.762 25.379 21.95 35.567 17.021 17.021 39.514 26.395 63.338 26.395s46.317-9.373 63.338-26.395c10.188-10.188 17.612-22.345 21.95-35.567z" fill="#e41f2d"/><path d="m256 309.887c-2.506 0-5.011.149-7.5.439v59.674c0 4.142 3.358 7.5 7.5 7.5s7.5-3.358 7.5-7.5v-59.674c-2.489-.29-4.994-.439-7.5-.439z" fill="#fd4755"/><g><g><circle cx="224.5" cy="365" fill="#fd4755" r="10"/></g><g><circle cx="287.5" cy="365" fill="#fd4755" r="10"/></g></g><g><g><circle cx="224.5" cy="335" fill="#fd4755" r="10"/></g><g><circle cx="287.5" cy="335" fill="#fd4755" r="10"/></g></g><g><circle cx="256" cy="408.5" fill="#fff" r="8.5"/></g><g><g><circle cx="205.5" cy="395.5" fill="#fff" r="8.5"/></g><g><circle cx="306.5" cy="395.5" fill="#fff" r="8.5"/></g></g><g><g><circle cx="170.5" cy="367.5" fill="#fff" r="8.5"/></g><g><circle cx="339.5" cy="367.5" fill="#fff" r="8.5"/></g></g><g><path d="m441.458 223.642v40.96c0 5.352-2.097 10.35-5.903 14.074-3.729 3.648-8.623 5.658-13.777 5.658-.001 0-.001 0-.002 0-1.98 0-3.961-.304-5.887-.903l-28.805-8.952-.4.275c-13.446 9.237-29.175 14.12-45.486 14.12h-59.953l-.299.42c-5.739 8.074-15.065 12.894-24.946 12.894s-19.207-4.82-24.946-12.894l-.299-.42h-59.952c-16.311 0-32.041-4.882-45.487-14.12l-.4-.275-28.805 8.952c-1.927.599-3.908.903-5.887.903-10.853 0-19.683-8.852-19.683-19.732v-40.96c-26.297 8.145-45.541 32.749-45.541 61.633 0 .739.013 1.475.038 2.208 1.365 40.042 40.017 68.273 78.932 58.744l136.843-33.508c9.978-2.443 20.397-2.443 30.375 0l136.843 33.508c38.916 9.529 77.568-18.701 78.932-58.744.025-.733.038-1.469.038-2.208-.001-28.884-19.245-53.488-45.543-61.633z" fill="#fff"/></g><path d="m81.038 287.483c-.025-.733-.038-1.469-.038-2.208 0-1.078.029-2.149.082-3.214-6.258-3.307-10.539-9.887-10.539-17.458v-40.96c-26.299 8.144-45.543 32.748-45.543 61.632 0 .739.013 1.475.038 2.208 1.365 40.042 40.017 68.273 78.932 58.744l14.8-3.624c-21.204-9.361-36.872-29.89-37.732-55.12z" fill="#f5f8f9"/><g><g><path d="m460.382 78.559c-1.363.813-2.709 1.579-4.045 2.312 22.652-22.706 6.091-56.243-16.971-30.752-2.584 2.856-5.161 5.436-7.72 7.809 25.877-32.714-6.43-68.547-20.496-32.913-7.265 18.406-16.758 30.506-25.343 38.374 17.132.515 31.721 6.324 42.299 16.902 9.871 9.871 15.551 23.145 16.733 38.548 52.564-2.862 51.324-61.632 15.543-40.28z" fill="#01998d"/></g><g><path d="m83.893 80.292c10.578-10.578 25.167-16.387 42.299-16.902-8.585-7.868-18.078-19.969-25.343-38.374-14.066-35.634-46.373.199-20.496 32.913-2.558-2.373-5.136-4.952-7.72-7.809-23.061-25.493-39.623 8.044-16.97 30.751-1.335-.733-2.682-1.499-4.045-2.312-35.781-21.351-37.021 37.418 15.542 40.281 1.181-15.403 6.861-28.677 16.733-38.548z" fill="#01998d"/></g></g><g fill="#fd4755"><path d="m421.922 191.907-.178.257v16.163c0 27.827-14.187 52.4-35.705 66.876l29.552 9.184c13.334 4.144 26.866-5.821 26.866-19.784v-48.459c0-17.017-2.323-33.515-6.645-49.206-3.596 8.38-8.217 16.772-13.89 24.969z"/><path d="m217.562 104.92c18.17 18.17 31.129 39.396 37.477 61.383l.961 3.327.961-3.328c6.348-21.987 19.307-43.213 37.477-61.383 20.804-20.804 46.194-34.899 70.664-39.728-30.728-22.308-68.446-35.505-109.102-35.505-40.656 0-78.374 13.197-109.102 35.506 24.47 4.829 49.86 18.924 70.664 39.728z"/><path d="m90.256 208.327v-16.163l-.178-.257c-5.673-8.197-10.295-16.589-13.891-24.97-4.322 15.692-6.645 32.19-6.645 49.206v48.459c0 13.963 13.532 23.928 26.866 19.784l29.552-9.184c-21.517-14.475-35.704-39.048-35.704-66.875z"/></g><g fill="#fb2b3a"><path d="m101 264.603v-16.163c-6.82-11.821-10.744-25.513-10.744-40.114v-16.163l-.178-.257c-5.673-8.197-10.295-16.589-13.891-24.97-4.322 15.692-6.645 32.19-6.645 49.206v48.459c0 13.963 13.532 23.928 26.866 19.784l12.158-3.778c-4.566-3.745-7.566-9.431-7.566-16.004z"/><path d="m229.261 38.369c0-2.402.364-4.719 1.036-6.9-30.804 4.298-59.26 16.196-83.4 33.722 7.463 1.473 15.01 3.805 22.488 6.93 17.589-14.459 37.848-25.772 59.893-33.068-.006-.227-.017-.454-.017-.684z"/></g><path d="m238.111 56.674c4.294-2.68 9.358-4.234 14.782-4.234 5.301 0 10.262 1.481 14.493 4.05 5.256-4.285 8.615-10.81 8.615-18.12-.001-12.907-10.464-23.37-23.37-23.37s-23.369 10.463-23.369 23.369c-.001 7.418 3.459 14.024 8.849 18.305z" fill="#e8edf2"/><path d="m238.111 56.674c4.294-2.68 9.359-4.234 14.782-4.234.73 0 1.451.037 2.167.092-3.004-3.93-4.798-8.833-4.798-14.162 0-9.129 5.238-17.03 12.869-20.876-3.158-1.591-6.723-2.493-10.5-2.493-12.907 0-23.369 10.463-23.369 23.369-.001 7.417 3.459 14.023 8.849 18.304z" fill="#d9e7ec"/><path d="m225.734 276.062-.121-.83-.838-.025c-6.958-.209-13.344-3.851-17.082-9.743l-.295-.464h-36.595c-37.389 0-69.538-27.879-74.779-64.851l-.038-.267-.167-.212c-2.32-2.943-4.499-5.951-6.563-9v17.656c0 44.965 36.582 81.547 81.547 81.547h60.707c-2.976-3.958-5.023-8.665-5.776-13.811z" fill="#fed402"/><g><path d="m416.181 199.671-.167.212-.038.267c-5.242 36.971-37.39 64.85-74.779 64.85h-36.595l-.294.464c-3.738 5.892-10.124 9.534-17.082 9.743l-.838.025-.121.83c-.753 5.146-2.8 9.853-5.777 13.812h60.708c44.965 0 81.547-36.582 81.547-81.547v-17.656c-2.066 3.049-4.245 6.057-6.564 9z" fill="#fac600"/><path d="m95.256 189.453v-55.883c0-7.575 6.162-13.737 13.737-13.737h8.042c36.1 0 69.223 18.151 88.7 48.577l-.021.014c10.843 16.934 16.575 36.528 16.575 56.663v8.386l1.095-.104c.69-.066 1.374-.1 2.032-.1 2.672 0 5.29.506 7.78 1.503l.804.322 10.417-18.042c2.417-4.188 6.748-6.688 11.583-6.688s9.166 2.5 11.583 6.688l10.417 18.041.804-.322c2.491-.997 5.108-1.503 7.78-1.503.658 0 1.341.034 2.032.1l1.095.104v-8.386c0-20.135 5.731-39.729 16.575-56.663l.38-.593-.009-.012c19.529-30.06 52.488-47.985 88.308-47.985h8.042c7.575 0 13.737 6.162 13.737 13.737v55.883c0 4.233-.367 8.381-1.04 12.426 34.286-42.384 40.754-94.65 13.11-122.294-30.501-30.501-90.98-19.475-135.084 24.629-18.823 18.823-31.615 40.628-37.731 61.813-6.116-21.185-18.908-42.99-37.731-61.813-44.102-44.104-104.581-55.131-135.083-24.629-27.644 27.644-21.176 79.911 13.11 122.294-.672-4.046-1.039-8.193-1.039-12.426z" fill="#fea613"/><g><path d="m108.055 119.88c.998-15.724 6.564-29.79 17.07-40.295 7.076-7.076 15.767-11.913 25.492-14.625-26.319-6.103-51.147-1.659-67.431 14.625-27.644 27.644-21.176 79.911 13.11 122.294-.673-4.045-1.04-8.193-1.04-12.426v-55.883c0-7.259 5.662-13.205 12.799-13.69z" fill="#fe9901"/></g><path d="m222.289 231.933c-7.935 10.396-19.954 16.351-33.031 16.351-22.904 0-41.538-18.634-41.538-41.538s18.634-41.538 41.538-41.538c5.685 0 11.199 1.141 16.401 3.381l.898-.704c.087.135.184.258.277.387-18.839-29.713-52.013-49.439-89.798-49.439h-8.042c-8.139 0-14.737 6.598-14.737 14.737v55.883c0 42.276 34.271 76.547 76.547 76.547h52.485v-33.731l-1-.385z" fill="#f5f8f9"/><g><path d="m115 189.453v-55.883c0-6.967 4.84-12.79 11.337-14.327-3.066-.266-6.167-.41-9.302-.41h-8.042c-8.139 0-14.737 6.598-14.737 14.737v55.883c0 42.276 34.271 76.547 76.547 76.547h20.744c-42.276 0-76.547-34.271-76.547-76.547z" fill="#e8edf2"/></g><g><path d="m223.288 225.086c0-21.067-6.157-40.685-16.732-57.201-5.286-2.357-11.136-3.678-17.298-3.678-23.493 0-42.538 19.045-42.538 42.538s19.045 42.538 42.538 42.538c13.916 0 26.27-6.684 34.031-17.015v-7.182z" fill="#0ab69f"/></g><g><path d="m167.431 206.745c0-19.91 13.68-36.619 32.151-41.255-3.306-.829-6.761-1.283-10.324-1.283-23.493 0-42.538 19.045-42.538 42.538s19.045 42.538 42.538 42.538c3.572 0 7.038-.447 10.353-1.276-18.486-4.626-32.18-21.342-32.18-41.262z" fill="#01998d"/></g><g><circle cx="189.258" cy="206.745" fill="#596c76" r="19.851"/></g><g><path d="m190.298 206.745c0-7.126 3.767-13.356 9.406-16.858-3.037-1.886-6.608-2.993-10.445-2.993-10.964 0-19.851 8.888-19.851 19.851s8.888 19.851 19.851 19.851c3.838 0 7.409-1.107 10.445-2.993-5.639-3.502-9.406-9.732-9.406-16.858z" fill="#465a61"/></g><g><path d="m243.507 243.678c3.818-1.715 8.044-2.678 12.493-2.678s8.675.963 12.493 2.678c2.37-4.041 6.045-7.217 10.451-8.949l-10.495-18.178c-5.533-9.584-19.366-9.584-24.899 0l-10.495 18.178c4.407 1.732 8.082 4.908 10.452 8.949z" fill="#fff"/><path d="m225.406 271.594c0-12.785 7.886-23.758 19.047-28.325-3.799-6.574-10.899-11.002-19.038-11.002-12.138 0-21.978 9.84-21.978 21.978s9.84 21.978 21.978 21.978c.114 0 .226-.007.339-.009-.229-1.506-.348-3.049-.348-4.62z" fill="#e41f2d"/><path d="m224.406 271.594c0-.957.05-1.902.133-2.837-3.413-3.871-5.495-8.944-5.495-14.511 0-9.389 5.89-17.399 14.175-20.547-2.426-.922-5.054-1.431-7.803-1.431-12.138 0-21.978 9.84-21.978 21.978 0 11.913 9.48 21.606 21.307 21.961-.221-1.506-.339-3.045-.339-4.613z" fill="#c41926"/><path d="m403.007 118.833h-8.043c-37.613 0-70.65 19.552-89.532 49.038.004.005.008.009.011.013l.898.704c5.201-2.24 10.715-3.381 16.401-3.381 22.904 0 41.538 18.634 41.538 41.538s-18.634 41.538-41.538 41.538c-13.077 0-25.096-5.955-33.031-16.351v-.049l-1 .385v33.732h52.486c42.276 0 76.547-34.271 76.547-76.547v-55.883c0-8.139-6.598-14.737-14.737-14.737z" fill="#f5f8f9"/><g fill="#e8edf2"><path d="m403.007 118.833h-8.043c-37.613 0-70.65 19.552-89.532 49.038.004.005.008.009.011.013 5.286-2.357 11.136-3.678 17.298-3.678 4.164 0 8.185.609 11.988 1.725 19.486-22.613 48.332-36.931 80.524-36.931h1.76c-1.924-5.9-7.463-10.167-14.006-10.167z"/><path d="m288.711 232.269v33.731h20.289v-19.005c-8.16-2.786-15.211-7.968-20.289-14.726z"/></g><g><path d="m288.711 225.086c0-21.067 6.157-40.685 16.732-57.201 5.286-2.357 11.136-3.678 17.298-3.678 23.493 0 42.538 19.045 42.538 42.538s-19.045 42.538-42.538 42.538c-13.916 0-26.27-6.684-34.031-17.015v-7.182z" fill="#0ab69f"/></g><g><path d="m301 206.745c0-19.906 13.674-36.613 32.14-41.253-3.328-.836-6.81-1.285-10.398-1.285-6.162 0-12.012 1.321-17.298 3.678-10.576 16.516-16.732 36.134-16.732 57.202v7.183c7.761 10.331 20.115 17.015 34.031 17.015 3.588 0 7.07-.449 10.398-1.286-18.467-4.641-32.141-21.348-32.141-41.254z" fill="#01998d"/></g><g><circle cx="322.742" cy="206.745" fill="#596c76" r="19.851"/></g><g><path d="m323.298 206.745c0-7.227 3.875-13.533 9.648-17.005-2.985-1.795-6.467-2.846-10.203-2.846-10.964 0-19.851 8.888-19.851 19.851s8.888 19.851 19.851 19.851c3.736 0 7.219-1.051 10.203-2.846-5.773-3.472-9.648-9.778-9.648-17.005z" fill="#465a61"/></g><path d="m286.585 232.268c-8.139 0-15.239 4.427-19.038 11.002 11.161 4.567 19.047 15.539 19.047 28.325 0 1.571-.12 3.114-.349 4.621.113.002.226.009.339.009 12.138 0 21.978-9.84 21.978-21.978s-9.839-21.979-21.977-21.979z" fill="#e41f2d"/><g fill="#c41926"><path d="m280.397 251.52c1.016-8.189 6.522-14.983 13.991-17.821-2.426-.922-5.054-1.431-7.803-1.431-7.773 0-14.598 4.039-18.506 10.128 4.824 1.998 9.047 5.153 12.318 9.124z"/><path d="m287.594 271.594c0 1.563-.118 3.097-.337 4.599 2.503-.076 4.905-.554 7.131-1.4-2.531-.962-4.834-2.381-6.818-4.151.01.317.024.633.024.952z"/></g></g></g><g><circle cx="252.892" cy="80.444" fill="#fff" r="29.004"/></g><g><path d="m244 80.444c0-12.483 7.887-23.122 18.948-27.212-3.133-1.158-6.52-1.793-10.056-1.793-16.019 0-29.005 12.986-29.005 29.005s12.986 29.005 29.005 29.005c3.536 0 6.923-.635 10.056-1.793-11.061-4.09-18.948-14.729-18.948-27.212z" fill="#e8edf2"/></g><g><circle cx="256" cy="271.594" fill="#fed402" r="31.594"/></g><g><path d="m245 271.594c0-13.842 8.906-25.597 21.297-29.869-3.229-1.112-6.69-1.725-10.297-1.725-17.449 0-31.594 14.145-31.594 31.594s14.145 31.594 31.594 31.594c3.607 0 7.068-.613 10.297-1.726-12.391-4.271-21.297-16.025-21.297-29.868z" fill="#fac600"/></g></g></svg>