<svg height="512" viewBox="0 0 60 60" width="512" xmlns="http://www.w3.org/2000/svg"><g id="Page-1" fill="none" fill-rule="evenodd"><g id="018---Stars" transform="translate(-1)"><g id="Icons" fill-rule="nonzero" transform="translate(2 1)"><path id="Shape" d="m47.37 13.03-6.55 2.24c-.3546637.1233385-.6022029.4455323-.63.82l-.66 7.19c-.0165507.3877361-.2816351.7203938-.655891.823086-.374256.1026922-.7719926-.0480939-.984109-.373086l-1.22-1.99-2.27-3.72c-.2024846-.3344984-.604944-.4905542-.98-.38l-6.41 1.94c-.3741628.0962151-.7679916-.0570988-.9786196-.3809677-.210628-.3238688-.1910619-.746034.0486196-1.0490323l4.3-5.8c.2288398-.2969835.2602387-.7012435.08-1.03l-2.28-4.04-1.12-1.99c-.1913055-.33704705-.155111-.75713198.0910269-1.05648896.246138-.29935698.6513057-.41606389 1.0189731-.29351104l6.1 2.33c.3661381.12810543.7731626.00720708 1.01-.3l4.39-5.61c.2309689-.31894267.6473717-.44297457 1.0152155-.30239731.3678439.14057725.5953954.51070636.5547845.90239731l-.46 7.1c-.0355659.3914666.1930961.7589591.56.9l6.1 2.33c.3515925.1553029.5725025.5097641.557052.8938182-.0154504.3840541-.2641202.7196242-.627052.8461818z" fill="#ffdc00"/><path id="Shape" d="m47.44 11.29-6.1-2.33c-.3669039-.1410409-.5955659-.5085334-.56-.9l.46-7.1c.0406109-.39169095-.1869406-.76182006-.5547845-.90239731-.3678438-.14057726-.7842466-.01654536-1.0152155.30239731l-1.517 1.94-.373 5.76c-.0355659.3914666.1930961.7589591.56.9l6.1 2.33c.3515925.1553029.5725025.5097641.557052.8938182-.0154504.3840541-.2641202.7196242-.627052.8461818l-6.55 2.24c-.3546637.1233385-.6022029.4455323-.63.82l-.519 5.652 1.219 1.988c.2121164.3249921.609853.4757782.984109.373086.3742559-.1026922.6393403-.4353499.655891-.823086l.66-7.19c.0277971-.3744677.2753363-.6966615.63-.82l6.55-2.24c.3629318-.1265576.6116016-.4621277.627052-.8461818.0154505-.3840541-.2054595-.7385153-.557052-.8938182z" fill="#fec108"/><path id="Shape" d="m57.55 33.24-5.92 3.6c-.3123421.2004405-.4831126.5613873-.44.93l.91 7.17c.0592099.380818-.1306211.7570703-.4721033.9357265-.3414823.1786563-.7588168.1200602-1.0378967-.1457265l-1.5-1.57-3.13-3.26c-.2687386-.2859311-.6977441-.3519319-1.04-.16l-5.84 3.27c-.3457992.1793004-.7676964.1157983-1.0453953-.1573481-.2776989-.2731465-.3481653-.6939365-.1746047-1.0426519l2.96-6.59c.1500464-.3372748.0915888-.7308888-.15-1.01l-1.82-2.04-2.79-3.13c-.2589493-.2864601-.314183-.7030383-.1388318-1.047082.1753513-.3440436.5448841-.544128.9288318-.502918l6.46.96c.3882563.0521174.7652188-.154604.93-.51l3.07-6.42c.1589008-.3613827.540109-.5716076.9305331-.5131608.390424.0584467.6933588.3710881.7394669.7631608l1.07 7.04c.0553045.387224.3543882.694391.74.76l6.46.96c.377683.0739537.6707986.3728987.7373014.7519647.0665028.3790659-.1073472.7599347-.4373014.9580353z" fill="#ffdc00"/><path id="Shape" d="m57.25 31.53-6.46-.96c-.3856118-.065609-.6846955-.372776-.74-.76l-1.07-7.04c-.0461081-.3920727-.3490429-.7047141-.7394669-.7631608-.3904241-.0584468-.7716323.1517781-.9305331.5131608l-1.038 2.171.778 5.119c.0553045.387224.3543882.694391.74.76l6.46.96c.377683.0739537.6707986.3728987.7373014.7519647.0665028.3790659-.1073472.7599347-.4373014.9580353l-5.92 3.6c-.3123421.2004405-.4831126.5613873-.44.93l.8 6.283.1.107 1.5 1.57c.2790799.2657867.6964144.3243828 1.0378967.1457265.3414822-.1786562.5313132-.5549085.4721033-.9357265l-.91-7.17c-.0431126-.3686127.1276579-.7295595.44-.93l5.92-3.6c.3299542-.1981006.5038042-.5789694.4373014-.9580353-.0665028-.379066-.3596184-.678011-.7373014-.7519647z" fill="#fec108"/><path id="Shape" d="m20.27 30.55h-6.09c-.3564203-.0006176-.6666814.2434545-.75.59l-1.53 5.89c-.0980537.340867-.4057708.578826-.7603425.5879763-.3545718.0091502-.6741529-.2126205-.7896575-.5479763l-2.47-6.08c-.12328406-.316719-.42061527-.5318929-.76-.55l-4.12-.14-2.17-.08c-.35197909-.0112713-.66055797-.2384197-.77590543-.5711528-.11534746-.332733-.01357344-.7021371.25590543-.9288472l4.69-3.63c.28148044-.2195101.38347822-.5989419.25-.93l-2.28-6.06c-.13359933-.3324971-.02980321-.713276.25404764-.9319807.28385085-.2187048.67850954-.2219812.96595236-.0080193l5.29 3.73c.29134691.2071886.6829865.2031511.97-.01l4.69-3.63c.2872985-.2017317.6689876-.2063458.9610789-.0116183.2920912.1947275.4346355.5488306.3589211.8916183l-1.37 6.14c-.0706769.3347605.0626038.6797223.34.88l4.83 3.58.44.33c.2942432.1970701.4273081.561771.3291137.9020261s-.405114.5779806-.7591137.5879739z" fill="#ffdc00"/><path id="Shape" d="m10.43 31.14-.971 3.737.891 2.193c.1155046.3353558.4350857.5571265.7896575.5479763.3545717-.0091503.6622888-.2471093.7603425-.5879763l1.53-5.89c.0833186-.3465455.3935797-.5906176.75-.5900012l-3 .0000012c-.3564203-.0006176-.6666814.2434545-.75.59z" fill="#fec108"/><path id="Shape" d="m20.7 29.06-.44-.33-4.83-3.58c-.2773962-.2002777-.4106769-.5452395-.34-.88l1.37-6.14c.0757144-.3427877-.0668299-.6968908-.3589211-.8916183-.2920913-.1947275-.6737804-.1901134-.9610789.0116183l-1.793 1.388-1.257 5.632c-.0706769.3347605.0626038.6797223.34.88l4.83 3.58.44.33c.2942432.1970701.4273081.561771.3291137.9020261s-.405114.5779806-.7591137.5879739h3c.3539997-.0099933.6609193-.2477188.7591137-.5879739s-.0348705-.704956-.3291137-.9020261z" fill="#fec108"/><path id="Shape" d="m49.09 44.16c-6.56 1.43-13.94 9.73-17.27 13.5-.2929576.3189366-.757917.4130582-1.1518517.2331689s-.6273115-.5929043-.5781483-1.0231689c.86-14.08 7.67-22.45 8.76-23.7l1.82 2.04c.2415888.2791112.3000464.6727252.15 1.01l-2.96 6.59c-.1735606.3487154-.1030942.7695054.1746047 1.0426519.2776989.2731464.6995961.3366485 1.0453953.1573481l5.84-3.27c.3422559-.1919319.7712614-.1259311 1.04.16z" fill="#ff9801"/><path id="Shape" d="m45.96 40.9c-.2687386-.2859311-.6977441-.3519319-1.04-.16l-1.375.77 2.545 2.65c-5.792 1.263-12.219 7.877-15.937 12-.019.238-.048.464-.063.706-.0491632.4302646.1842136.8432796.5781483 1.0231689s.8588941.0857677 1.1518517-.2331689c3.33-3.77 10.71-12.07 17.27-13.5z" fill="#f57c00"/><path id="Shape" d="m36.67 21.74c-8.44 7.36-11.2 25.9-12.07 35.28-.0350025.5198738-.4462881.9352573-.9657894.975412s-.9897342-.3070921-1.1042106-.815412c-1.7654491-7.5098612-2.6149663-15.2058827-2.53-22.92 0-1.28.04-2.52.12-3.71h.15c.3539997-.0099933.6609193-.2477188.7591137-.5879739s-.0348705-.704956-.3291137-.9020261l-.44-.33c1.26-13.06 6.7-20.03 7.92-21.45l2.28 4.04c.1802387.3287565.1488398.7330165-.08 1.03l-4.3 5.8c-.2396815.3029983-.2592476.7251635-.0486196 1.0490323.210628.3238689.6044568.4771828.9786196.3809677l6.41-1.94c.375056-.1105542.7775154.0455016.98.38z" fill="#ff9801"/><path id="Shape" d="m34.4 18.02c-.2024846-.3344984-.604944-.4905542-.98-.38l-1.9.575 2.15 3.525c-7.688 6.7-10.662 22.682-11.789 32.566.216 1.056.436 2.016.649 2.874.1144764.5083199.5847093.8555667 1.1042106.815412s.9307869-.4555382.9657894-.975412c.87-9.38 3.63-27.92 12.07-35.28z" fill="#f57c00"/><path id="Shape" d="m17.53 30.56c-4.1 5.5-2.12 20.06-1.06 26.19.1038876.4216176-.0761893.8620962-.4456896 1.0901828-.3695003.2280867-.84397.1916491-1.1743104-.0901828-10.84-9.83-12.03-24.83-11.85-27.39v-.06l4.12.14c.33938473.0181071.63671594.233281.76.55l2.47 6.08c.1155046.3353558.4350857.5571265.7896575.5479763.3545717-.0091503.6622888-.2471093.7603425-.5879763l1.53-5.89c.0833186-.3465455.3935797-.5906176.75-.59h3.35z" fill="#ff9801"/><path id="Shape" d="m17.53 30.55h-3v.01c-4.015 5.386-2.201 19.44-1.13 25.779.465.479.943.952 1.449 1.411.3303404.2818319.8048101.3182695 1.1743104.0901828.3695003-.2280866.5495772-.6685652.4456896-1.0901828-1.06-6.13-3.04-20.69 1.06-26.19z" fill="#f57c00"/></g><g id="Layer_10"><g stroke="#000" stroke-linecap="round" stroke-linejoin="round" stroke-width="2"><path id="Shape" d="m43.243 1.958-.465 7.105c-.0314882.390488.1957755.7557332.56.9l6.1 2.325c.3534889.1537386.5760387.5090364.5600926.8941801-.0159462.3851437-.2671048.7208284-.6320926.8448199l-6.552 2.245c-.3508354.1249447-.5965993.4429921-.629.814l-.653 7.192c-.016268.3890484-.2824812.7228198-.6581701.8251973s-.7744321-.0501892-.9858299-.3771973l-3.488-5.709c-.2030889-.3365696-.6095008-.491295-.985-.375l-6.4 1.939c-.3736393.095057-.7663228-.0584316-.9764622-.3816708-.2101395-.3232392-.1910526-.7444218.0474622-1.0473292l4.3-5.8c.2225767-.2984921.2507069-.6993476.072-1.026l-3.396-6.039c-.1893136-.3346757-.1536636-.75125966.089762-1.04890281s.6446534-.41524159 1.010238-.29609719l6.1 2.326c.3680856.13454541.7808689.01278042 1.017-.3l4.384-5.612c.2318586-.32144401.6508261-.44689921 1.0211927-.30578486s.59963.51355375.5588073.90778486z"/><path id="Shape" d="m50.982 23.769 1.07 7.039c.0524531.3882546.3523672.6966912.739.76l6.458.963c.3772705.0755309.6694847.374909.7358576.753898.0663728.3789889-.1067093.759855-.4358576.959102l-5.918 3.6c-.316167.197056-.4881552.5605765-.44.93l.9 7.164c.0597541.3810015-.1298812.7577275-.4715054.9366843-.3416243.1789568-.7592975.1203639-1.0384946-.1456843l-4.623-4.829c-.2708034-.2850843-.7009976-.3490154-1.043-.155l-5.839 3.265c-.3453428.174691-.7636982.1090464-1.0389397-.163021-.2752416-.2720674-.345734-.6896332-.1750603-1.036979l2.956-6.588c.1542819-.3391886.0960187-.7372552-.149-1.018l-4.61-5.169c-.2566325-.2871006-.3105148-.7023724-.1356505-1.0454606.1748642-.3430882.5425458-.5434984.9256505-.5045394l6.458.963c.3878822.0528628.7646944-.1542215.928-.51l3.078-6.421c.1608249-.3590151.5412536-.5667904.9302356-.5080586.3889821.0587319.6911068.369565.7387644.7600586z"/><path id="Shape" d="m6.187 18.159 5.294 3.727c.2878954.2099532.6791839.2071119.964-.007l4.7-3.633c.2864281-.2017839.6675306-.2063854.9587472-.0115761s.4324298.5488138.3552528.8905761l-1.359 6.149c-.0701761.3314413.0600687.6732849.333.874l5.267 3.915c.2934713.1974789.4258149.5618843.3274636.9016641s-.4048826.5771502-.7584636.5873359h-6.085c-.3572406-.0018647-.6698415.239803-.758.586l-1.526 5.89c-.0987437.3393533-.4051873.5762142-.7584723.5862494s-.6726798-.2090484-.7905277-.5422494l-2.468-6.087c-.12604411-.3142209-.42381864-.5260237-.762-.542l-6.294-.227c-.35032589-.0114973-.65747601-.2373468-.77289358-.5683139-.11541756-.3309671-.01531433-.6988374.25189358-.9256861l4.694-3.633c.27902608-.2215723.38049925-.5994584.25-.931l-2.276-6.058c-.12978014-.3304599-.02624179-.7069205.25427605-.9245358.28051783-.2176152.67089948-.2243193.95872395-.0164642z"/><path id="Shape" d="m51.09 45.16c-6.56 1.43-13.94 9.73-17.27 13.5-.2929576.3189366-.757917.4130582-1.1518517.2331689s-.6273115-.5929043-.5781483-1.0231689c.86-14.08 7.67-22.45 8.76-23.7"/><path id="Shape" d="m22.12 31.55c-.08 1.19-.12 2.43-.12 3.71-.0849663 7.7141173.7645509 15.4101388 2.53 22.92.1144764.5083199.5847093.8555667 1.1042106.815412s.9307869-.4555382.9657894-.975412c.87-9.38 3.63-27.92 12.07-35.28"/><path id="Shape" d="m22.26 29.73c1.26-13.06 6.7-20.03 7.92-21.45"/><path id="Shape" d="m19.53 31.561c-4.1 5.5-2.123 20.054-1.058 26.184.0981147.4213281-.0841141.8582056-.4525426 1.0849308s-.8405509.1925255-1.1724574-.0849308c-10.832-9.822-12.026-24.823-11.847-27.385"/></g><path id="Shape" d="m60.961 33.046c-.1496486-.7819063-.7774523-1.3836351-1.565-1.5l-6.366-.95-1.06-6.973c-.1131016-.824724-.7566834-1.4759837-1.5800082-1.5988577-.8233247-.1228739-1.6290165.3120946-1.9779918 1.0678577l-3.05 6.361-6.362-.953c-.7879168-.1189722-1.5645565.2749697-1.934.981-.3984292.7188103-.2976772 1.6111279.251 2.223l2.229 2.48c-2.083 2.606-7.666 10.726-8.454 23.626-.0683196.881028.4394765 1.7055402 1.257 2.041.776456.323269 1.6727672.1096885 2.22-.529 3.038-3.437 10.033-11.341 16.21-13.037l1.088 1.135c.3458878.3681041.8278918.5778282 1.333.58.280487-.0008652.5572339-.0644145.81-.186.7535168-.3641268 1.1888064-1.1702187 1.08-2l-.937-7.114 5.918-3.6c.7039786-.4251238 1.061243-1.2496419.89-2.054zm-27.873 24.885c.384517-8.0127737 3.0995463-15.7390684 7.812-22.231l1 1.118-2.95 6.582c-.3473069.7625149-.1658288 1.6618399.45 2.23.588871.5481559 1.46602.6490848 2.164.249l5.746-3.216 1.926 2.01c-6.465 2.355-13.167 9.927-16.148 13.258zm20.025-20.942c-.6542755.4014713-1.0117741 1.1497515-.913 1.911l.931 6.953-4.451-4.647c-.5869106-.6118908-1.5130913-.7500163-2.253-.336l-5.538 3.1 2.842-6.335c.3157931-.698721.192081-1.5177265-.316-2.092l-1.891-2.1c-.007-.007-.01-.016-.017-.023h-.006l-2.614-2.907 6.272.936c.8228184.1197662 1.6267856-.3143273 1.978-1.068l2.913-6.081 1.013 6.663c.1158736.8239338.7585092 1.4742924 1.581 1.6l6.229.929z" fill="#000" fill-rule="nonzero"/><path id="Shape" d="m2.79 32.215 1.2.043c.082 4.568 2.112 18.09 12.19 27.23.6127022.5669046 1.5209524.6743277 2.249.266.7740578-.4319598 1.1888812-1.3073856 1.033-2.18-.783-4.5-3-19.352.61-25.022h1c-.041.883-.069 1.783-.069 2.708-.0823466 7.7970127.77789 15.5754045 2.562 23.166.2146929.9214557 1.0358639 1.5735865 1.982 1.574.057 0 .113 0 .171-.007 1.0075147-.0723897 1.8090749-.873524 1.882-1.881.713-7.7 3.183-25.967 10.869-33.8l.57.935c.3302557.5536493.9273324.8928283 1.572.893.1470653-.0004922.2936243-.017261.437-.05.8149256-.1937414 1.4136356-.8884063 1.485-1.723l.611-7.15 6.551-2.246c.7757594-.2648606 1.2992236-.9912924 1.305-1.811.0222665-.793788-.4587086-1.5152506-1.2-1.8l-6.02-2.298.46-7.039c.0658061-.82946643-.4231991-1.60299263-1.2007132-1.89933168s-1.6573175-.04451587-2.1602868.61833168l-4.343 5.558-6.015-2.293c-.744577-.28510841-1.5880389-.06620996-2.1.545-.5434007.6165251-.636525 1.509635-.232 2.225l.79 1.391c-1.863 2.344-6.1 8.749-7.51 19.736l-3.377-2.504 1.341-6.054c.1723037-.7665642-.1605896-1.5580391-.829-1.971-.6389669-.4167832-1.4718131-.383068-2.075.084l-4.576 3.541-5.189-3.658c-.64611718-.4599238-1.51712184-.4427654-2.1446241.0422483s-.86361875 1.3235794-.5813759 2.0647517l2.233 5.942-4.578 3.54c-.60226509.4673002-.84297986 1.2644673-.6 1.987.2314329.7498216.91272162 1.2705237 1.697 1.297zm14.73 25.791c-9.505-8.619-11.406-21.606-11.528-25.675l3 .108 2.433 6.008c.280464.7030126.96011 1.1649502 1.717 1.167h.121c.7697651-.0422621 1.4215745-.5824603 1.606-1.331l1.488-5.726h1.453c-2.981 6.286-1.54 18.351-.29 25.449zm18.391-49.806c.777666.29395911 1.6560671.04223213 2.16-.619l4.149-5.306-.44 6.725c-.0631763.82876588.424502 1.6009231 1.2 1.9l5.886 2.244-6.376 2.185c-.7244562.2525767-1.2333326.9066786-1.3 1.671l-.583 6.989-3.353-5.489c-.3384326-.5533773-.9403375-.8908834-1.589-.891-.1827072-.0001179-.3643975.0271862-.539.081l-6.074 1.838 4.135-5.578c.4585717-.614516.5137721-1.4409561.141-2.111l-2.237-3.946c-.022398-.04878048-.0488228-.09560924-.079-.14l-1.028-1.81zm-4.331 4.554-4.3 5.8c-.5024177.6707417-.5173402 1.588275-.037 2.275.4578656.6612014 1.292603.9476865 2.06.707l6.3-1.909 1.79 2.932c-8.109 7.812-10.867 25.411-11.8 35.429l-.089-.051c-1.7443127-7.4306708-2.5850635-15.0447707-2.504-22.677 0-1 .032-1.975.083-2.923.4148753-.2051366.7308631-.5671911.878-1.006.2434402-.7492176-.0137187-1.5704412-.641-2.047 1.1-10.3 4.868-16.644 6.735-19.218zm-23.967 14.126c.62892732-.4878618.86275791-1.3308719.575-2.073l-2.051-5.461 4.763 3.354c.6460714.4664991 1.521981.4526668 2.153-.034l4.331-3.351-1.271 5.739c-.1554693.7165417.1240482 1.4576155.714 1.893l4.849 3.6h-5.5c-.8123859.0001576-1.5221968.5488533-1.727 1.335l-1.382 5.32-2.266-5.6c-.273993-.6801671-.92131374-1.1365008-1.654-1.166l-5.875-.212z" fill="#000" fill-rule="nonzero"/></g></g></g></svg>