<svg id="Capa_1" enable-background="new 0 0 497.002 497.002" height="512" viewBox="0 0 497.002 497.002" width="512" xmlns="http://www.w3.org/2000/svg"><g><g><path d="m248.497 256.221c-4.143 0-7.5-3.358-7.5-7.5v-233.931c0-4.142 3.357-7.5 7.5-7.5s7.5 3.358 7.5 7.5v233.931c0 4.142-3.357 7.5-7.5 7.5z" fill="#61aab8"/></g><g><path d="m248.494 256.222c-1.483 0-2.98-.438-4.289-1.353-3.396-2.373-4.225-7.048-1.852-10.444l134.19-192.037c2.372-3.396 7.046-4.225 10.443-1.852 3.396 2.373 4.225 7.048 1.852 10.444l-134.189 192.037c-1.458 2.088-3.787 3.205-6.155 3.205z" fill="#61aab8"/></g><g><path d="m248.508 256.222c-2.367 0-4.696-1.117-6.154-3.205l-133.149-190.549c-2.373-3.396-1.544-8.071 1.852-10.444s8.072-1.542 10.443 1.852l133.148 190.549c2.373 3.396 1.544 8.071-1.852 10.444-1.307.914-2.806 1.353-4.288 1.353z" fill="#61aab8"/></g><path d="m461.831 163.751-82.534 39.957c-.6-1.33-.98-2.15-1.03-2.25-24.84-50.69-69.616-81.702-129.766-81.702-58.87 0-102.48 27.865-127.92 76.785-.21.41-1.25 2.48-2.74 5.46l-82.671-38.25c11.608-65.441 121.336-142.548 213.256-142.548 91.91 0 208.933 81.601 213.405 142.548z" fill="#d82f3c"/><path d="m478.352 153.771-11.234 5.134c-41.42-79.78-126.782-134.809-218.692-134.809-91.92 0-179.162 58.36-220.572 138.14l-9.933-5.752c4.53-9.623 1.413-23.682 7.026-32.627 46.691-74.408 129.356-123.856 223.544-123.856 94.194 0 176.866 49.453 223.56 123.86z" fill="#ffbf54"/><path d="m423.631 181.771-40.939 19.75c-.6-1.33-.98-2.15-1.03-2.25-24.84-50.69-73.891-82.579-134.041-82.579-58.87 0-104.663 28.199-130.103 77.119-.21.41-1.25 2.48-2.74 5.46l-41.497-17.54.42-.84c1.58-3.16 2.69-5.36 2.91-5.8l.12-.24c33.5-64.4 99.31-104.41 171.77-104.41 36.89 0 72.78 10.44 103.79 30.21 30.05 19.15 54.23 46.15 69.94 78.11.23.46.56 1.16 1.4 3.01z" fill="#c42430"/><path d="m386.551 199.271-35.178 13.762c-17.25-36.61-65.882-63.042-108.962-63.042s-80.26 25.34-97.5 61.95l-34.54-12.71c1.49-2.98 2.53-5.05 2.74-5.46 25.44-48.92 76.52-82.33 135.39-82.33 60.15 0 112.18 34.89 137.02 85.58.05.1.43.92 1.03 2.25z" fill="#ffbf54"/><path d="m461.831 163.751-75.28 35.52c-.6-1.33-.98-2.15-1.03-2.25-4.45-9.08-9.78-17.66-15.87-25.62l75.65-35.2c6.04 8.78 11.56 17.98 16.53 27.55z" fill="#c42430"/><path d="m127.351 171.391c-5.37 7.01-10.14 14.49-14.24 22.38-.21.41-1.25 2.48-2.74 5.46l-75.2-35.48c4.97-9.57 10.5-18.78 16.54-27.56z" fill="#c42430"/><g><path d="m423.631 181.771-37.08 17.5c-3.184-6.928-16.268-7.235-20.369-13.387-1.895-2.842 5.578-11.698 3.469-14.483l37.88-17.63c6.235 9.067 11.412 17.827 16.1 28z" fill="#a81f2a"/><path d="m127.341 171.391c-7.073 9.361-11.607 16.887-16.97 27.84l-37.09-17.5c5.356-10.92 9.647-18.508 16.17-27.98z" fill="#a81f2a"/><path d="m127.351 171.391c-.67.88-1.33 1.76-1.99 2.65.65-.89 1.31-1.77 1.98-2.65z" fill="#c42430"/></g><g fill="#ffa442"><path d="m21.251 129.931c1.2-2.04 2.44-4.07 3.7-6.07-1.26 2-2.49 4.03-3.7 6.07z"/><path d="m449.968 143.242c4.263 6.649 8.216 13.496 11.863 20.509l25.46-12.01c-4.515-9.577-9.615-18.919-15.24-27.88-.988.331-5.049 2.234-8.041 3.637-1.777.834-3.882.244-4.996-1.372-48.66-70.58-126.637-113.206-210.513-113.206-83.879 0-161.859 42.618-210.508 113.189-1.114 1.616-3.219 2.206-4.996 1.372-2.984-1.4-7.021-3.292-8.035-3.641 0 .01-.01.01-.01.02-5.631 8.966-10.729 18.292-15.24 27.87l10.081 4.759v.001l15.38 7.26c4.945-9.516 10.466-18.731 16.54-27.56l-.002-.001c44.251-64.409 115.903-106.268 196.79-106.268 83.782-.037 157.801 45.05 201.467 113.321z"/><path d="m386.551 199.271c-.6-1.33-.98-2.15-1.03-2.25-4.45-9.08-9.78-17.66-15.87-25.62l-22.436 10.438c-1.617.752-3.52.329-4.706-1.002-23.557-26.455-57.727-42.386-94.016-42.386-36.292 0-70.451 15.926-94.005 42.374-1.186 1.331-3.089 1.754-4.705 1.002l-22.431-10.436h-.01c-5.36 7.01-10.13 14.49-14.23 22.38-.21.41-1.25 2.48-2.74 5.46l40.62 19.17s0 0 0-.001l.001.001c4.7-9.922 10.891-19.137 18.337-27.208 19.686-21.357 47.863-34.742 79.163-34.742 31.415 0 59.681 13.484 79.381 34.978 7.35 8.013 13.478 17.144 18.128 26.972l.001-.001v.001l18.23-8.6v-.001z"/></g><path d="m247.882 272.68c-2.186 0-4.372-.478-6.399-1.434l-229.173-103.535c-5.536-2.577-13.857-7.648-11.256-13.183l3.413-7.262c2.581-5.492 9.105-7.863 14.6-5.306l229.432 106.761 229.438-106.746c5.495-2.557 12.019-.185 14.6 5.307l3.412 7.261c2.601 5.534-10.358 12.338-15.895 14.915l-225.775 101.788c-2.025.956-4.211 1.434-6.397 1.434z" fill="#61aab8"/><path d="m495.951 154.541-2.13-4.54c-.9.91-1.97 1.68-3.2 2.25l-199.809 93.001c-1.559.726-3.379-.017-4.047-1.601-1.519-3.604-3.529-6.953-5.954-9.959l-32.31 15.03-32.37-15.06c-2.437 3.015-4.434 6.367-5.936 9.961-.665 1.59-2.488 2.338-4.051 1.611l-199.763-92.993c-1.23-.57-2.3-1.34-3.19-2.25l-2.14 4.54c-2.6 5.53-.21 12.13 5.33 14.71l235.72 109.73c4.021 1.887 8.769 1.881 12.79 0l235.73-109.72c5.54-2.58 7.93-9.17 5.33-14.71z" fill="#5595a2"/><path d="m273.251 226.401-18.52 26.5c-.01.01-.01.01-.01.01-1.118 1.644-2.905 2.854-4.87 3.18-.869.179-1.795.169-2.67.01-1.975-.338-3.797-1.533-4.91-3.2l-18.53-26.52c2.83-2.09 5.95-3.84 9.33-5.2.64-.28 1.29-.53 1.94-.75.78-.27 1.57-.51 2.37-.72l1.8 2.576c.56.802 1.82.405 1.82-.573v-2.843c2.46-.46 4.97-.69 7.5-.69 2.56 0 5.07.23 7.5.68v2.856c0 .978 1.259 1.374 1.819.573l1.811-2.589c4.98 1.39 9.58 3.68 13.62 6.7z" fill="#5595a2"/><path d="m263.033 494.225-26.911.39c-9.874 0-17.061-9.386-14.504-18.943l13.84-56.17 12.818-5.872 17.74 8.52 14.955 55.91c.32 1.195.487 2.387.516 3.558.202 8.197-9.814 12.607-18.454 12.607z" fill="#d82f3c"/><path d="m281.491 481.971c.01 8.04-6.51 15.03-15.02 15.03h-10.47l-8.628-3.628-6.372 3.628h-10.47c-9.88 0-17.06-9.39-14.51-18.94l14.96-55.91 7.712-3.671 7.819 3.671-14.301 53.56c-.848 3.175 1.545 6.29 4.831 6.29h29.43z" fill="#c42430"/><g><path d="m256.001 422.151v74.85l-6.585-4.989-8.415 4.989v-74.85l7.5-3.671z" fill="#c42430"/></g><g><path d="m248.497 384.801c-4.143 0-7.5-3.358-7.5-7.5v-60.779c0-4.142 3.357-7.5 7.5-7.5s7.5 3.358 7.5 7.5v60.779c0 4.143-3.357 7.5-7.5 7.5z" fill="#ffbf54"/></g><ellipse cx="248.498" cy="377.007" fill="#ffbf54" rx="15.016" ry="15.047"/><path d="m263.071 380.621c-1.61 6.57-7.52 11.43-14.57 11.43-8.3 0-15.02-6.73-15.02-15.04 0-7.08 4.87-13.01 11.44-14.62-.29 1.16-.44 2.37-.44 3.62 0 8.31 6.72 15.04 15.02 15.04 1.23 0 2.43-.15 3.57-.43z" fill="#ffa442"/><path d="m265.838 422.149c7.639 0 12.541-8.272 8.749-14.917-4.199-7.359-11.41-12.77-19.949-14.548-1.982-.413-5.841 1.796-7.946 1.796-11.17 0-15.081 3.554-20.255 12.621-3.792 6.645-2.532 13.591 5.106 13.591l8.34 1.456h25.955z" fill="#ffbf54"/><path d="m246.161 422.151h-15c-7.64 0-12.54-8.27-8.75-14.92 5.17-9.07 14.92-15.18 26.09-15.18 2.59 0 5.1.33 7.5.96-7.95 2.03-14.62 7.25-18.59 14.22-3.79 6.65 1.11 14.92 8.75 14.92z" fill="#ffa442"/><g><path d="m241.001 482.001h15v15h-15z" fill="#a81f2a"/></g><g fill="#5595a2"><path d="m242.541 253.271c-.07-.08-.13-.16-.19-.25l-.07-.11c.08.12.17.24.26.36z"/><path d="m249.381 256.171c-.04 0-.08.01-.11.01.01 0 .03 0 .05-.01z"/><path d="m253.271 254.501c-.07.07-.14.13-.22.18-.08.07-.16.13-.25.19-.03.02-.05.04-.08.05.19-.13.37-.27.55-.42z"/><path d="m253.801 254.021c-.14.16-.3.3-.46.43-.02.02-.04.04-.07.05.18-.15.36-.31.53-.48z"/><path d="m254.281 253.491c-.01.02-.03.05-.05.07-.13.16-.28.32-.43.46.17-.17.33-.35.48-.53z"/></g><g fill="#5595a2"><path d="m242.541 253.271c-.07-.08-.13-.16-.19-.25l-.07-.11c.08.12.17.24.26.36z"/><path d="m247.731 256.181c-.03 0-.07-.01-.11-.01h.06c.02.01.04.01.05.01z"/><path d="m253.271 254.501c-.07.07-.14.13-.22.18-.08.07-.16.13-.25.19-.03.02-.05.04-.08.05.19-.13.37-.27.55-.42z"/><path d="m253.801 254.021c-.14.16-.3.3-.46.43-.02.02-.04.04-.07.05.18-.15.36-.31.53-.48z"/><path d="m254.281 253.491c-.01.02-.03.05-.05.07-.13.16-.28.32-.43.46.17-.17.33-.35.48-.53z"/></g><path d="m287.033 317.203c0-1.131 3.82-2.69 3.46-4.135-2.748-11.029-15.335-30.082-27.828-39.996-4.942-3.921-8.834-6.361-13.132-6.361-16.587 0-38.585 37.483-38.585 50.662s19.158 9.702 35.745 9.702 40.34 3.307 40.34-9.872z" fill="#d82f3c"/><path d="m291.041 316.951c0 11.315-19.134 14.191-35.04 14.779l-7.5-9.25-7.5 9.25c-15.913-.587-35.05-3.462-35.05-14.779 0-13.18 25.96-50.29 42.55-50.29 2.91 0 6.11 1.14 9.41 3.11-7.28 7.9-19.33 22.12-24.05 28.26-3.123 4.053-5.556 7.894-7.331 11.116-1.004 1.823.075 4.088 2.13 4.425 4.29.704 10.628 1.288 19.841 1.288 8.83 0 29.17-.9 41.98-1.79.37 1.441.56 2.751.56 3.881z" fill="#c42430"/><path d="m271.022 259.755c0-12.466-10.085-22.571-22.524-22.571-2.555 0-5.01.426-7.299 1.211-8.858 3.038-3.528 13.754-3.528 23.659 0 12.466-1.61 14.468 10.83 14.468 9.869 0 18.251-.556 21.297-9.409.793-2.306 1.224-4.782 1.224-7.358z" fill="#d82f3c"/><path d="m269.791 267.111c-3.04 8.86-11.42 15.21-21.29 15.21-12.44 0-22.53-10.1-22.53-22.57 0-9.9 6.37-18.31 15.23-21.35-.8 2.3-1.23 4.78-1.23 7.35 0 12.47 10.09 22.57 22.53 22.57 2.55 0 5.01-.42 7.29-1.21z" fill="#c42430"/><path d="m247.731 256.181c-.03 0-.07-.01-.11-.01h.06c.02.01.04.01.05.01z" fill="#5595a2"/><path d="m249.381 256.171c-.04 0-.08.01-.11.01.01 0 .03 0 .05-.01z" fill="#5595a2"/><g><path d="m256.001 268.721v63.01l-7.505-5.677-7.495 5.677v-63.02c2.62-1.31 5.15-2.05 7.5-2.05s4.88.74 7.5 2.06z" fill="#c42430"/></g><path d="m248.501 314.861c1.99 0 4.56-.04 7.5-.13v17c-5.012.177-9.988.177-15 0v-17.01c2.26.09 4.75.14 7.5.14z" fill="#a81f2a"/></g></svg>