<svg id="Capa_1" enable-background="new 0 0 512.014 512.014" height="20" viewBox="0 0 512.014 512.014" width="20" xmlns="http://www.w3.org/2000/svg"><g><path d="m504.533 512.011h-284.672c-4.127 0-7.473-3.346-7.473-7.473v-453.789c0-4.127 3.346-7.473 7.473-7.473h284.673c4.127 0 7.473 3.346 7.473 7.473v453.789c0 4.127-3.346 7.473-7.474 7.473z" fill="#ee6161"/><path d="m512.002 50.75v453.791c0 4.127-3.345 7.473-7.473 7.473h-21.574c4.127 0 7.473-3.345 7.473-7.473v-453.791c0-4.127-3.345-7.472-7.473-7.472h21.574c4.128 0 7.473 3.345 7.473 7.472z" fill="#e94444"/><path d="m362.197 43.276h-141.879l40.611 55.232c1.941 2.64 5.023 4.199 8.3 4.199h92.968 92.968c3.277 0 6.358-1.559 8.3-4.199l40.611-55.232z" fill="#d83131"/><g><path d="m362.197 455.662c-4.142 0-7.5-3.357-7.5-7.5v-281.605c0-4.143 3.358-7.5 7.5-7.5s7.5 3.357 7.5 7.5v281.605c0 4.143-3.358 7.5-7.5 7.5z" fill="#d83131"/></g><path d="m292.153 468.738h-284.673c-4.127 0-7.473-3.346-7.473-7.473v-453.789c0-4.127 3.346-7.473 7.473-7.473h284.673c4.127 0 7.473 3.346 7.473 7.473v453.789c0 4.127-3.346 7.473-7.473 7.473z" fill="#f79595"/><path d="m299.626 7.473v453.791c0 4.127-3.345 7.472-7.473 7.472h-20.586c4.127 0 7.473-3.345 7.473-7.472v-453.791c0-4.127-3.345-7.473-7.473-7.473h20.586c4.127 0 7.473 3.345 7.473 7.473z" fill="#f47c7c"/><path d="m149.817 165.755s-57.37-1.932-62.521 49.581l62.521 30.264 62.521-30.264c-5.152-51.513-62.521-49.581-62.521-49.581z" fill="#fed402"/><path d="m212.342 215.337-20.267 9.809-.597-5.857c-5.146-51.516-62.519-49.581-62.519-49.581s-1.729-.062-4.611.113c13.494-4.467 25.464-4.066 25.464-4.066s57.374-1.934 62.53 49.582z" fill="#fac600"/><path d="m149.817 220.514c-39.429.407-75.515-14.476-93.779-23.542-5.643-2.801-12.174 1.648-11.58 7.92 1.461 15.425 5.146 40.505 14.384 63.033 6.592 16.075 20.897 27.726 37.987 30.849 12.819 2.342 30.571 4.394 52.988 4.209 22.417.185 40.17-1.867 52.988-4.209 17.091-3.123 31.396-14.774 37.987-30.849 9.238-22.528 12.923-47.608 14.384-63.033.594-6.272-5.937-10.721-11.58-7.92-18.265 9.067-54.35 23.949-93.779 23.542z" fill="#fee97d"/><path d="m255.171 204.889c-1.451 15.429-5.136 40.502-14.379 63.033-6.587 16.077-20.894 27.729-37.991 30.848-12.815 2.347-30.57 4.395-52.988 4.21-3.695.031-7.256 0-10.694-.082 17.436-.412 31.589-2.172 42.293-4.127 17.096-3.119 31.393-14.77 37.991-30.848 9.233-22.531 12.917-47.604 14.379-63.033.103-1.132-.021-2.203-.329-3.181 3.798-1.667 7.205-3.273 10.138-4.735 5.651-2.8 12.177 1.647 11.58 7.915z" fill="#fedf30"/><g fill="#fdf6ec"><path d="m65.369 72.862c-4.172 9.676-12.806 23.918-29.324 31.701-2.844 1.34-2.844 5.394 0 6.734 16.519 7.783 25.153 22.025 29.324 31.701 1.302 3.021 5.557 3.021 6.859 0 4.172-9.676 12.806-23.918 29.324-31.701 2.844-1.34 2.844-5.394 0-6.734-16.519-7.783-25.152-22.025-29.324-31.701-1.302-3.021-5.557-3.021-6.859 0z"/><path d="m230.688 331.944c-3.814 8.848-11.709 21.869-26.812 28.986-2.6 1.225-2.6 4.932 0 6.157 15.104 7.116 22.998 20.138 26.812 28.986 1.191 2.762 5.081 2.762 6.272 0 3.814-8.848 11.709-21.869 26.812-28.986 2.6-1.225 2.6-4.932 0-6.157-15.104-7.116-22.998-20.138-26.812-28.986-1.191-2.762-5.082-2.762-6.272 0z"/></g><g fill="#fef1da"><path d="m101.55 111.296c-16.52 7.781-25.156 22.027-29.324 31.702-1.297 3.026-5.558 3.026-6.855 0-1.945-4.498-4.848-9.995-9.058-15.357.154-.206.278-.443.391-.69 4.169-9.685 12.804-23.921 29.324-31.702.391-.185.721-.412 1.009-.69 3.983 3.808 8.77 7.297 14.513 10.005 2.851 1.339 2.851 5.395 0 6.732z"/><path d="m263.776 367.084c-15.11 7.123-23.004 20.143-26.813 28.985-1.194 2.769-5.085 2.769-6.279 0-1.956-4.539-4.982-10.18-9.521-15.553.103-.154.196-.319.268-.494 3.819-8.852 11.713-21.872 26.813-28.985.35-.165.648-.371.895-.607 3.891 4.004 8.708 7.709 14.636 10.499 2.594 1.225 2.594 4.93.001 6.155z"/></g></g></svg>